<?xml version="1.0" encoding="utf-8" standalone="no"?>
<!DOCTYPE svg PUBLIC "-//W3C//DTD SVG 1.1//EN"
  "http://www.w3.org/Graphics/SVG/1.1/DTD/svg11.dtd">
<svg xmlns:xlink="http://www.w3.org/1999/xlink" width="1142.672812pt" height="368.931875pt" viewBox="0 0 1142.672812 368.931875" xmlns="http://www.w3.org/2000/svg" version="1.1">
 <metadata>
  <rdf:RDF xmlns:dc="http://purl.org/dc/elements/1.1/" xmlns:cc="http://creativecommons.org/ns#" xmlns:rdf="http://www.w3.org/1999/02/22-rdf-syntax-ns#">
   <cc:Work>
    <dc:type rdf:resource="http://purl.org/dc/dcmitype/StillImage"/>
    <dc:date>2026-04-06T23:50:09.175673</dc:date>
    <dc:format>image/svg+xml</dc:format>
    <dc:creator>
     <cc:Agent>
      <dc:title>Matplotlib v3.10.8, https://matplotlib.org/</dc:title>
     </cc:Agent>
    </dc:creator>
   </cc:Work>
  </rdf:RDF>
 </metadata>
 <defs>
  <style type="text/css">*{stroke-linejoin: round; stroke-linecap: butt}</style>
 </defs>
 <g id="figure_1">
  <g id="patch_1">
   <path d="M 0 368.931875 
L 1142.672812 368.931875 
L 1142.672812 -0 
L 0 -0 
z
" style="fill: #ffffff"/>
  </g>
  <g id="axes_1">
   <g id="patch_2">
    <path d="M 73.152812 329.44 
L 387.672813 329.44 
L 387.672813 82.752 
L 73.152812 82.752 
z
" style="fill: #ffffff"/>
   </g>
   <g id="patch_3">
    <path d="M 73.152812 93.965091 
L 372.69567 93.965091 
L 372.69567 106.087351 
L 73.152812 106.087351 
z
" clip-path="url(#pafff8cbe3d)" style="fill: #e74c3c; opacity: 0.85; stroke: #ffffff; stroke-linejoin: miter"/>
   </g>
   <g id="patch_4">
    <path d="M 73.152812 109.117916 
L 307.78679 109.117916 
L 307.78679 121.240177 
L 73.152812 121.240177 
z
" clip-path="url(#pafff8cbe3d)" style="fill: #e74c3c; opacity: 0.85; stroke: #ffffff; stroke-linejoin: miter"/>
   </g>
   <g id="patch_5">
    <path d="M 73.152812 124.270742 
L 301.196786 124.270742 
L 301.196786 136.393002 
L 73.152812 136.393002 
z
" clip-path="url(#pafff8cbe3d)" style="fill: #e74c3c; opacity: 0.85; stroke: #ffffff; stroke-linejoin: miter"/>
   </g>
   <g id="patch_6">
    <path d="M 73.152812 139.423568 
L 250.055225 139.423568 
L 250.055225 151.545828 
L 73.152812 151.545828 
z
" clip-path="url(#pafff8cbe3d)" style="fill: #e74c3c; opacity: 0.85; stroke: #ffffff; stroke-linejoin: miter"/>
   </g>
   <g id="patch_7">
    <path d="M 73.152812 154.576393 
L 240.937619 154.576393 
L 240.937619 166.698654 
L 73.152812 166.698654 
z
" clip-path="url(#pafff8cbe3d)" style="fill: #e74c3c; opacity: 0.85; stroke: #ffffff; stroke-linejoin: miter"/>
   </g>
   <g id="patch_8">
    <path d="M 73.152812 169.729219 
L 234.266912 169.729219 
L 234.266912 181.851479 
L 73.152812 181.851479 
z
" clip-path="url(#pafff8cbe3d)" style="fill: #e74c3c; opacity: 0.85; stroke: #ffffff; stroke-linejoin: miter"/>
   </g>
   <g id="patch_9">
    <path d="M 73.152812 184.882044 
L 204.447716 184.882044 
L 204.447716 197.004305 
L 73.152812 197.004305 
z
" clip-path="url(#pafff8cbe3d)" style="fill: #e74c3c; opacity: 0.85; stroke: #ffffff; stroke-linejoin: miter"/>
   </g>
   <g id="patch_10">
    <path d="M 73.152812 200.03487 
L 203.226335 200.03487 
L 203.226335 212.15713 
L 73.152812 212.15713 
z
" clip-path="url(#pafff8cbe3d)" style="fill: #e74c3c; opacity: 0.85; stroke: #ffffff; stroke-linejoin: miter"/>
   </g>
   <g id="patch_11">
    <path d="M 73.152812 215.187695 
L 198.217674 215.187695 
L 198.217674 227.309956 
L 73.152812 227.309956 
z
" clip-path="url(#pafff8cbe3d)" style="fill: #e74c3c; opacity: 0.85; stroke: #ffffff; stroke-linejoin: miter"/>
   </g>
   <g id="patch_12">
    <path d="M 73.152812 230.340521 
L 189.185336 230.340521 
L 189.185336 242.462781 
L 73.152812 242.462781 
z
" clip-path="url(#pafff8cbe3d)" style="fill: #e74c3c; opacity: 0.85; stroke: #ffffff; stroke-linejoin: miter"/>
   </g>
   <g id="patch_13">
    <path d="M 73.152812 245.493346 
L 186.952377 245.493346 
L 186.952377 257.615607 
L 73.152812 257.615607 
z
" clip-path="url(#pafff8cbe3d)" style="fill: #e74c3c; opacity: 0.85; stroke: #ffffff; stroke-linejoin: miter"/>
   </g>
   <g id="patch_14">
    <path d="M 73.152812 260.646172 
L 186.673857 260.646172 
L 186.673857 272.768432 
L 73.152812 272.768432 
z
" clip-path="url(#pafff8cbe3d)" style="fill: #e74c3c; opacity: 0.85; stroke: #ffffff; stroke-linejoin: miter"/>
   </g>
   <g id="patch_15">
    <path d="M 73.152812 275.798998 
L 186.343037 275.798998 
L 186.343037 287.921258 
L 73.152812 287.921258 
z
" clip-path="url(#pafff8cbe3d)" style="fill: #e74c3c; opacity: 0.85; stroke: #ffffff; stroke-linejoin: miter"/>
   </g>
   <g id="patch_16">
    <path d="M 73.152812 290.951823 
L 181.690008 290.951823 
L 181.690008 303.074084 
L 73.152812 303.074084 
z
" clip-path="url(#pafff8cbe3d)" style="fill: #e74c3c; opacity: 0.85; stroke: #ffffff; stroke-linejoin: miter"/>
   </g>
   <g id="patch_17">
    <path d="M 73.152812 306.104649 
L 175.957535 306.104649 
L 175.957535 318.226909 
L 73.152812 318.226909 
z
" clip-path="url(#pafff8cbe3d)" style="fill: #e74c3c; opacity: 0.85; stroke: #ffffff; stroke-linejoin: miter"/>
   </g>
   <g id="matplotlib.axis_1">
    <g id="xtick_1">
     <g id="line2d_1">
      <defs>
       <path id="m4ed00635a2" d="M 0 0 
L 0 3.5 
" style="stroke: #000000; stroke-width: 0.8"/>
      </defs>
      <g>
       <use xlink:href="#m4ed00635a2" x="73.152812" y="329.44" style="stroke: #000000; stroke-width: 0.8"/>
      </g>
     </g>
     <g id="text_1">
      <!-- 0.00 -->
      <g transform="translate(60.906719 344.798281) scale(0.11 -0.11)">
       <defs>
        <path id="DejaVuSans-30" d="M 2034 4250 
Q 1547 4250 1301 3770 
Q 1056 3291 1056 2328 
Q 1056 1369 1301 889 
Q 1547 409 2034 409 
Q 2525 409 2770 889 
Q 3016 1369 3016 2328 
Q 3016 3291 2770 3770 
Q 2525 4250 2034 4250 
z
M 2034 4750 
Q 2819 4750 3233 4129 
Q 3647 3509 3647 2328 
Q 3647 1150 3233 529 
Q 2819 -91 2034 -91 
Q 1250 -91 836 529 
Q 422 1150 422 2328 
Q 422 3509 836 4129 
Q 1250 4750 2034 4750 
z
" transform="scale(0.015625)"/>
        <path id="DejaVuSans-2e" d="M 684 794 
L 1344 794 
L 1344 0 
L 684 0 
L 684 794 
z
" transform="scale(0.015625)"/>
       </defs>
       <use xlink:href="#DejaVuSans-30"/>
       <use xlink:href="#DejaVuSans-2e" transform="translate(63.623047 0)"/>
       <use xlink:href="#DejaVuSans-30" transform="translate(95.410156 0)"/>
       <use xlink:href="#DejaVuSans-30" transform="translate(159.033203 0)"/>
      </g>
     </g>
    </g>
    <g id="xtick_2">
     <g id="line2d_2">
      <g>
       <use xlink:href="#m4ed00635a2" x="112.799579" y="329.44" style="stroke: #000000; stroke-width: 0.8"/>
      </g>
     </g>
     <g id="text_2">
      <!-- 0.01 -->
      <g transform="translate(100.553485 344.798281) scale(0.11 -0.11)">
       <defs>
        <path id="DejaVuSans-31" d="M 794 531 
L 1825 531 
L 1825 4091 
L 703 3866 
L 703 4441 
L 1819 4666 
L 2450 4666 
L 2450 531 
L 3481 531 
L 3481 0 
L 794 0 
L 794 531 
z
" transform="scale(0.015625)"/>
       </defs>
       <use xlink:href="#DejaVuSans-30"/>
       <use xlink:href="#DejaVuSans-2e" transform="translate(63.623047 0)"/>
       <use xlink:href="#DejaVuSans-30" transform="translate(95.410156 0)"/>
       <use xlink:href="#DejaVuSans-31" transform="translate(159.033203 0)"/>
      </g>
     </g>
    </g>
    <g id="xtick_3">
     <g id="line2d_3">
      <g>
       <use xlink:href="#m4ed00635a2" x="152.446345" y="329.44" style="stroke: #000000; stroke-width: 0.8"/>
      </g>
     </g>
     <g id="text_3">
      <!-- 0.02 -->
      <g transform="translate(140.200251 344.798281) scale(0.11 -0.11)">
       <defs>
        <path id="DejaVuSans-32" d="M 1228 531 
L 3431 531 
L 3431 0 
L 469 0 
L 469 531 
Q 828 903 1448 1529 
Q 2069 2156 2228 2338 
Q 2531 2678 2651 2914 
Q 2772 3150 2772 3378 
Q 2772 3750 2511 3984 
Q 2250 4219 1831 4219 
Q 1534 4219 1204 4116 
Q 875 4013 500 3803 
L 500 4441 
Q 881 4594 1212 4672 
Q 1544 4750 1819 4750 
Q 2544 4750 2975 4387 
Q 3406 4025 3406 3419 
Q 3406 3131 3298 2873 
Q 3191 2616 2906 2266 
Q 2828 2175 2409 1742 
Q 1991 1309 1228 531 
z
" transform="scale(0.015625)"/>
       </defs>
       <use xlink:href="#DejaVuSans-30"/>
       <use xlink:href="#DejaVuSans-2e" transform="translate(63.623047 0)"/>
       <use xlink:href="#DejaVuSans-30" transform="translate(95.410156 0)"/>
       <use xlink:href="#DejaVuSans-32" transform="translate(159.033203 0)"/>
      </g>
     </g>
    </g>
    <g id="xtick_4">
     <g id="line2d_4">
      <g>
       <use xlink:href="#m4ed00635a2" x="192.093111" y="329.44" style="stroke: #000000; stroke-width: 0.8"/>
      </g>
     </g>
     <g id="text_4">
      <!-- 0.03 -->
      <g transform="translate(179.847017 344.798281) scale(0.11 -0.11)">
       <defs>
        <path id="DejaVuSans-33" d="M 2597 2516 
Q 3050 2419 3304 2112 
Q 3559 1806 3559 1356 
Q 3559 666 3084 287 
Q 2609 -91 1734 -91 
Q 1441 -91 1130 -33 
Q 819 25 488 141 
L 488 750 
Q 750 597 1062 519 
Q 1375 441 1716 441 
Q 2309 441 2620 675 
Q 2931 909 2931 1356 
Q 2931 1769 2642 2001 
Q 2353 2234 1838 2234 
L 1294 2234 
L 1294 2753 
L 1863 2753 
Q 2328 2753 2575 2939 
Q 2822 3125 2822 3475 
Q 2822 3834 2567 4026 
Q 2313 4219 1838 4219 
Q 1578 4219 1281 4162 
Q 984 4106 628 3988 
L 628 4550 
Q 988 4650 1302 4700 
Q 1616 4750 1894 4750 
Q 2613 4750 3031 4423 
Q 3450 4097 3450 3541 
Q 3450 3153 3228 2886 
Q 3006 2619 2597 2516 
z
" transform="scale(0.015625)"/>
       </defs>
       <use xlink:href="#DejaVuSans-30"/>
       <use xlink:href="#DejaVuSans-2e" transform="translate(63.623047 0)"/>
       <use xlink:href="#DejaVuSans-30" transform="translate(95.410156 0)"/>
       <use xlink:href="#DejaVuSans-33" transform="translate(159.033203 0)"/>
      </g>
     </g>
    </g>
    <g id="xtick_5">
     <g id="line2d_5">
      <g>
       <use xlink:href="#m4ed00635a2" x="231.739877" y="329.44" style="stroke: #000000; stroke-width: 0.8"/>
      </g>
     </g>
     <g id="text_5">
      <!-- 0.04 -->
      <g transform="translate(219.493784 344.798281) scale(0.11 -0.11)">
       <defs>
        <path id="DejaVuSans-34" d="M 2419 4116 
L 825 1625 
L 2419 1625 
L 2419 4116 
z
M 2253 4666 
L 3047 4666 
L 3047 1625 
L 3713 1625 
L 3713 1100 
L 3047 1100 
L 3047 0 
L 2419 0 
L 2419 1100 
L 313 1100 
L 313 1709 
L 2253 4666 
z
" transform="scale(0.015625)"/>
       </defs>
       <use xlink:href="#DejaVuSans-30"/>
       <use xlink:href="#DejaVuSans-2e" transform="translate(63.623047 0)"/>
       <use xlink:href="#DejaVuSans-30" transform="translate(95.410156 0)"/>
       <use xlink:href="#DejaVuSans-34" transform="translate(159.033203 0)"/>
      </g>
     </g>
    </g>
    <g id="xtick_6">
     <g id="line2d_6">
      <g>
       <use xlink:href="#m4ed00635a2" x="271.386643" y="329.44" style="stroke: #000000; stroke-width: 0.8"/>
      </g>
     </g>
     <g id="text_6">
      <!-- 0.05 -->
      <g transform="translate(259.14055 344.798281) scale(0.11 -0.11)">
       <defs>
        <path id="DejaVuSans-35" d="M 691 4666 
L 3169 4666 
L 3169 4134 
L 1269 4134 
L 1269 2991 
Q 1406 3038 1543 3061 
Q 1681 3084 1819 3084 
Q 2600 3084 3056 2656 
Q 3513 2228 3513 1497 
Q 3513 744 3044 326 
Q 2575 -91 1722 -91 
Q 1428 -91 1123 -41 
Q 819 9 494 109 
L 494 744 
Q 775 591 1075 516 
Q 1375 441 1709 441 
Q 2250 441 2565 725 
Q 2881 1009 2881 1497 
Q 2881 1984 2565 2268 
Q 2250 2553 1709 2553 
Q 1456 2553 1204 2497 
Q 953 2441 691 2322 
L 691 4666 
z
" transform="scale(0.015625)"/>
       </defs>
       <use xlink:href="#DejaVuSans-30"/>
       <use xlink:href="#DejaVuSans-2e" transform="translate(63.623047 0)"/>
       <use xlink:href="#DejaVuSans-30" transform="translate(95.410156 0)"/>
       <use xlink:href="#DejaVuSans-35" transform="translate(159.033203 0)"/>
      </g>
     </g>
    </g>
    <g id="xtick_7">
     <g id="line2d_7">
      <g>
       <use xlink:href="#m4ed00635a2" x="311.03341" y="329.44" style="stroke: #000000; stroke-width: 0.8"/>
      </g>
     </g>
     <g id="text_7">
      <!-- 0.06 -->
      <g transform="translate(298.787316 344.798281) scale(0.11 -0.11)">
       <defs>
        <path id="DejaVuSans-36" d="M 2113 2584 
Q 1688 2584 1439 2293 
Q 1191 2003 1191 1497 
Q 1191 994 1439 701 
Q 1688 409 2113 409 
Q 2538 409 2786 701 
Q 3034 994 3034 1497 
Q 3034 2003 2786 2293 
Q 2538 2584 2113 2584 
z
M 3366 4563 
L 3366 3988 
Q 3128 4100 2886 4159 
Q 2644 4219 2406 4219 
Q 1781 4219 1451 3797 
Q 1122 3375 1075 2522 
Q 1259 2794 1537 2939 
Q 1816 3084 2150 3084 
Q 2853 3084 3261 2657 
Q 3669 2231 3669 1497 
Q 3669 778 3244 343 
Q 2819 -91 2113 -91 
Q 1303 -91 875 529 
Q 447 1150 447 2328 
Q 447 3434 972 4092 
Q 1497 4750 2381 4750 
Q 2619 4750 2861 4703 
Q 3103 4656 3366 4563 
z
" transform="scale(0.015625)"/>
       </defs>
       <use xlink:href="#DejaVuSans-30"/>
       <use xlink:href="#DejaVuSans-2e" transform="translate(63.623047 0)"/>
       <use xlink:href="#DejaVuSans-30" transform="translate(95.410156 0)"/>
       <use xlink:href="#DejaVuSans-36" transform="translate(159.033203 0)"/>
      </g>
     </g>
    </g>
    <g id="xtick_8">
     <g id="line2d_8">
      <g>
       <use xlink:href="#m4ed00635a2" x="350.680176" y="329.44" style="stroke: #000000; stroke-width: 0.8"/>
      </g>
     </g>
     <g id="text_8">
      <!-- 0.07 -->
      <g transform="translate(338.434082 344.798281) scale(0.11 -0.11)">
       <defs>
        <path id="DejaVuSans-37" d="M 525 4666 
L 3525 4666 
L 3525 4397 
L 1831 0 
L 1172 0 
L 2766 4134 
L 525 4134 
L 525 4666 
z
" transform="scale(0.015625)"/>
       </defs>
       <use xlink:href="#DejaVuSans-30"/>
       <use xlink:href="#DejaVuSans-2e" transform="translate(63.623047 0)"/>
       <use xlink:href="#DejaVuSans-30" transform="translate(95.410156 0)"/>
       <use xlink:href="#DejaVuSans-37" transform="translate(159.033203 0)"/>
      </g>
     </g>
    </g>
    <g id="text_9">
     <!-- Mean TF-IDF Weight -->
     <g transform="translate(175.242656 359.444219) scale(0.11 -0.11)">
      <defs>
       <path id="DejaVuSans-4d" d="M 628 4666 
L 1569 4666 
L 2759 1491 
L 3956 4666 
L 4897 4666 
L 4897 0 
L 4281 0 
L 4281 4097 
L 3078 897 
L 2444 897 
L 1241 4097 
L 1241 0 
L 628 0 
L 628 4666 
z
" transform="scale(0.015625)"/>
       <path id="DejaVuSans-65" d="M 3597 1894 
L 3597 1613 
L 953 1613 
Q 991 1019 1311 708 
Q 1631 397 2203 397 
Q 2534 397 2845 478 
Q 3156 559 3463 722 
L 3463 178 
Q 3153 47 2828 -22 
Q 2503 -91 2169 -91 
Q 1331 -91 842 396 
Q 353 884 353 1716 
Q 353 2575 817 3079 
Q 1281 3584 2069 3584 
Q 2775 3584 3186 3129 
Q 3597 2675 3597 1894 
z
M 3022 2063 
Q 3016 2534 2758 2815 
Q 2500 3097 2075 3097 
Q 1594 3097 1305 2825 
Q 1016 2553 972 2059 
L 3022 2063 
z
" transform="scale(0.015625)"/>
       <path id="DejaVuSans-61" d="M 2194 1759 
Q 1497 1759 1228 1600 
Q 959 1441 959 1056 
Q 959 750 1161 570 
Q 1363 391 1709 391 
Q 2188 391 2477 730 
Q 2766 1069 2766 1631 
L 2766 1759 
L 2194 1759 
z
M 3341 1997 
L 3341 0 
L 2766 0 
L 2766 531 
Q 2569 213 2275 61 
Q 1981 -91 1556 -91 
Q 1019 -91 701 211 
Q 384 513 384 1019 
Q 384 1609 779 1909 
Q 1175 2209 1959 2209 
L 2766 2209 
L 2766 2266 
Q 2766 2663 2505 2880 
Q 2244 3097 1772 3097 
Q 1472 3097 1187 3025 
Q 903 2953 641 2809 
L 641 3341 
Q 956 3463 1253 3523 
Q 1550 3584 1831 3584 
Q 2591 3584 2966 3190 
Q 3341 2797 3341 1997 
z
" transform="scale(0.015625)"/>
       <path id="DejaVuSans-6e" d="M 3513 2113 
L 3513 0 
L 2938 0 
L 2938 2094 
Q 2938 2591 2744 2837 
Q 2550 3084 2163 3084 
Q 1697 3084 1428 2787 
Q 1159 2491 1159 1978 
L 1159 0 
L 581 0 
L 581 3500 
L 1159 3500 
L 1159 2956 
Q 1366 3272 1645 3428 
Q 1925 3584 2291 3584 
Q 2894 3584 3203 3211 
Q 3513 2838 3513 2113 
z
" transform="scale(0.015625)"/>
       <path id="DejaVuSans-20" transform="scale(0.015625)"/>
       <path id="DejaVuSans-54" d="M -19 4666 
L 3928 4666 
L 3928 4134 
L 2272 4134 
L 2272 0 
L 1638 0 
L 1638 4134 
L -19 4134 
L -19 4666 
z
" transform="scale(0.015625)"/>
       <path id="DejaVuSans-46" d="M 628 4666 
L 3309 4666 
L 3309 4134 
L 1259 4134 
L 1259 2759 
L 3109 2759 
L 3109 2228 
L 1259 2228 
L 1259 0 
L 628 0 
L 628 4666 
z
" transform="scale(0.015625)"/>
       <path id="DejaVuSans-2d" d="M 313 2009 
L 1997 2009 
L 1997 1497 
L 313 1497 
L 313 2009 
z
" transform="scale(0.015625)"/>
       <path id="DejaVuSans-49" d="M 628 4666 
L 1259 4666 
L 1259 0 
L 628 0 
L 628 4666 
z
" transform="scale(0.015625)"/>
       <path id="DejaVuSans-44" d="M 1259 4147 
L 1259 519 
L 2022 519 
Q 2988 519 3436 956 
Q 3884 1394 3884 2338 
Q 3884 3275 3436 3711 
Q 2988 4147 2022 4147 
L 1259 4147 
z
M 628 4666 
L 1925 4666 
Q 3281 4666 3915 4102 
Q 4550 3538 4550 2338 
Q 4550 1131 3912 565 
Q 3275 0 1925 0 
L 628 0 
L 628 4666 
z
" transform="scale(0.015625)"/>
       <path id="DejaVuSans-57" d="M 213 4666 
L 850 4666 
L 1831 722 
L 2809 4666 
L 3519 4666 
L 4500 722 
L 5478 4666 
L 6119 4666 
L 4947 0 
L 4153 0 
L 3169 4050 
L 2175 0 
L 1381 0 
L 213 4666 
z
" transform="scale(0.015625)"/>
       <path id="DejaVuSans-69" d="M 603 3500 
L 1178 3500 
L 1178 0 
L 603 0 
L 603 3500 
z
M 603 4863 
L 1178 4863 
L 1178 4134 
L 603 4134 
L 603 4863 
z
" transform="scale(0.015625)"/>
       <path id="DejaVuSans-67" d="M 2906 1791 
Q 2906 2416 2648 2759 
Q 2391 3103 1925 3103 
Q 1463 3103 1205 2759 
Q 947 2416 947 1791 
Q 947 1169 1205 825 
Q 1463 481 1925 481 
Q 2391 481 2648 825 
Q 2906 1169 2906 1791 
z
M 3481 434 
Q 3481 -459 3084 -895 
Q 2688 -1331 1869 -1331 
Q 1566 -1331 1297 -1286 
Q 1028 -1241 775 -1147 
L 775 -588 
Q 1028 -725 1275 -790 
Q 1522 -856 1778 -856 
Q 2344 -856 2625 -561 
Q 2906 -266 2906 331 
L 2906 616 
Q 2728 306 2450 153 
Q 2172 0 1784 0 
Q 1141 0 747 490 
Q 353 981 353 1791 
Q 353 2603 747 3093 
Q 1141 3584 1784 3584 
Q 2172 3584 2450 3431 
Q 2728 3278 2906 2969 
L 2906 3500 
L 3481 3500 
L 3481 434 
z
" transform="scale(0.015625)"/>
       <path id="DejaVuSans-68" d="M 3513 2113 
L 3513 0 
L 2938 0 
L 2938 2094 
Q 2938 2591 2744 2837 
Q 2550 3084 2163 3084 
Q 1697 3084 1428 2787 
Q 1159 2491 1159 1978 
L 1159 0 
L 581 0 
L 581 4863 
L 1159 4863 
L 1159 2956 
Q 1366 3272 1645 3428 
Q 1925 3584 2291 3584 
Q 2894 3584 3203 3211 
Q 3513 2838 3513 2113 
z
" transform="scale(0.015625)"/>
       <path id="DejaVuSans-74" d="M 1172 4494 
L 1172 3500 
L 2356 3500 
L 2356 3053 
L 1172 3053 
L 1172 1153 
Q 1172 725 1289 603 
Q 1406 481 1766 481 
L 2356 481 
L 2356 0 
L 1766 0 
Q 1100 0 847 248 
Q 594 497 594 1153 
L 594 3053 
L 172 3053 
L 172 3500 
L 594 3500 
L 594 4494 
L 1172 4494 
z
" transform="scale(0.015625)"/>
      </defs>
      <use xlink:href="#DejaVuSans-4d"/>
      <use xlink:href="#DejaVuSans-65" transform="translate(86.279297 0)"/>
      <use xlink:href="#DejaVuSans-61" transform="translate(147.802734 0)"/>
      <use xlink:href="#DejaVuSans-6e" transform="translate(209.082031 0)"/>
      <use xlink:href="#DejaVuSans-20" transform="translate(272.460938 0)"/>
      <use xlink:href="#DejaVuSans-54" transform="translate(304.248047 0)"/>
      <use xlink:href="#DejaVuSans-46" transform="translate(365.332031 0)"/>
      <use xlink:href="#DejaVuSans-2d" transform="translate(422.851562 0)"/>
      <use xlink:href="#DejaVuSans-49" transform="translate(458.935547 0)"/>
      <use xlink:href="#DejaVuSans-44" transform="translate(488.427734 0)"/>
      <use xlink:href="#DejaVuSans-46" transform="translate(565.429688 0)"/>
      <use xlink:href="#DejaVuSans-20" transform="translate(622.949219 0)"/>
      <use xlink:href="#DejaVuSans-57" transform="translate(654.736328 0)"/>
      <use xlink:href="#DejaVuSans-65" transform="translate(747.738281 0)"/>
      <use xlink:href="#DejaVuSans-69" transform="translate(809.261719 0)"/>
      <use xlink:href="#DejaVuSans-67" transform="translate(837.044922 0)"/>
      <use xlink:href="#DejaVuSans-68" transform="translate(900.521484 0)"/>
      <use xlink:href="#DejaVuSans-74" transform="translate(963.900391 0)"/>
     </g>
    </g>
   </g>
   <g id="matplotlib.axis_2">
    <g id="ytick_1">
     <g id="line2d_9">
      <defs>
       <path id="md13dbc06e9" d="M 0 0 
L -3.5 0 
" style="stroke: #000000; stroke-width: 0.8"/>
      </defs>
      <g>
       <use xlink:href="#md13dbc06e9" x="73.152812" y="100.026221" style="stroke: #000000; stroke-width: 0.8"/>
      </g>
     </g>
     <g id="text_10">
      <!-- your -->
      <g transform="translate(45.915469 103.445518) scale(0.09 -0.09)">
       <defs>
        <path id="DejaVuSans-79" d="M 2059 -325 
Q 1816 -950 1584 -1140 
Q 1353 -1331 966 -1331 
L 506 -1331 
L 506 -850 
L 844 -850 
Q 1081 -850 1212 -737 
Q 1344 -625 1503 -206 
L 1606 56 
L 191 3500 
L 800 3500 
L 1894 763 
L 2988 3500 
L 3597 3500 
L 2059 -325 
z
" transform="scale(0.015625)"/>
        <path id="DejaVuSans-6f" d="M 1959 3097 
Q 1497 3097 1228 2736 
Q 959 2375 959 1747 
Q 959 1119 1226 758 
Q 1494 397 1959 397 
Q 2419 397 2687 759 
Q 2956 1122 2956 1747 
Q 2956 2369 2687 2733 
Q 2419 3097 1959 3097 
z
M 1959 3584 
Q 2709 3584 3137 3096 
Q 3566 2609 3566 1747 
Q 3566 888 3137 398 
Q 2709 -91 1959 -91 
Q 1206 -91 779 398 
Q 353 888 353 1747 
Q 353 2609 779 3096 
Q 1206 3584 1959 3584 
z
" transform="scale(0.015625)"/>
        <path id="DejaVuSans-75" d="M 544 1381 
L 544 3500 
L 1119 3500 
L 1119 1403 
Q 1119 906 1312 657 
Q 1506 409 1894 409 
Q 2359 409 2629 706 
Q 2900 1003 2900 1516 
L 2900 3500 
L 3475 3500 
L 3475 0 
L 2900 0 
L 2900 538 
Q 2691 219 2414 64 
Q 2138 -91 1772 -91 
Q 1169 -91 856 284 
Q 544 659 544 1381 
z
M 1991 3584 
L 1991 3584 
z
" transform="scale(0.015625)"/>
        <path id="DejaVuSans-72" d="M 2631 2963 
Q 2534 3019 2420 3045 
Q 2306 3072 2169 3072 
Q 1681 3072 1420 2755 
Q 1159 2438 1159 1844 
L 1159 0 
L 581 0 
L 581 3500 
L 1159 3500 
L 1159 2956 
Q 1341 3275 1631 3429 
Q 1922 3584 2338 3584 
Q 2397 3584 2469 3576 
Q 2541 3569 2628 3553 
L 2631 2963 
z
" transform="scale(0.015625)"/>
       </defs>
       <use xlink:href="#DejaVuSans-79"/>
       <use xlink:href="#DejaVuSans-6f" transform="translate(59.179688 0)"/>
       <use xlink:href="#DejaVuSans-75" transform="translate(120.361328 0)"/>
       <use xlink:href="#DejaVuSans-72" transform="translate(183.740234 0)"/>
      </g>
     </g>
    </g>
    <g id="ytick_2">
     <g id="line2d_10">
      <g>
       <use xlink:href="#md13dbc06e9" x="73.152812" y="115.179047" style="stroke: #000000; stroke-width: 0.8"/>
      </g>
     </g>
     <g id="text_11">
      <!-- to -->
      <g transform="translate(57.117656 118.598344) scale(0.09 -0.09)">
       <use xlink:href="#DejaVuSans-74"/>
       <use xlink:href="#DejaVuSans-6f" transform="translate(39.208984 0)"/>
      </g>
     </g>
    </g>
    <g id="ytick_3">
     <g id="line2d_11">
      <g>
       <use xlink:href="#md13dbc06e9" x="73.152812" y="130.331872" style="stroke: #000000; stroke-width: 0.8"/>
      </g>
     </g>
     <g id="text_12">
      <!-- minutes -->
      <g transform="translate(29.723906 133.751169) scale(0.09 -0.09)">
       <defs>
        <path id="DejaVuSans-6d" d="M 3328 2828 
Q 3544 3216 3844 3400 
Q 4144 3584 4550 3584 
Q 5097 3584 5394 3201 
Q 5691 2819 5691 2113 
L 5691 0 
L 5113 0 
L 5113 2094 
Q 5113 2597 4934 2840 
Q 4756 3084 4391 3084 
Q 3944 3084 3684 2787 
Q 3425 2491 3425 1978 
L 3425 0 
L 2847 0 
L 2847 2094 
Q 2847 2600 2669 2842 
Q 2491 3084 2119 3084 
Q 1678 3084 1418 2786 
Q 1159 2488 1159 1978 
L 1159 0 
L 581 0 
L 581 3500 
L 1159 3500 
L 1159 2956 
Q 1356 3278 1631 3431 
Q 1906 3584 2284 3584 
Q 2666 3584 2933 3390 
Q 3200 3197 3328 2828 
z
" transform="scale(0.015625)"/>
        <path id="DejaVuSans-73" d="M 2834 3397 
L 2834 2853 
Q 2591 2978 2328 3040 
Q 2066 3103 1784 3103 
Q 1356 3103 1142 2972 
Q 928 2841 928 2578 
Q 928 2378 1081 2264 
Q 1234 2150 1697 2047 
L 1894 2003 
Q 2506 1872 2764 1633 
Q 3022 1394 3022 966 
Q 3022 478 2636 193 
Q 2250 -91 1575 -91 
Q 1294 -91 989 -36 
Q 684 19 347 128 
L 347 722 
Q 666 556 975 473 
Q 1284 391 1588 391 
Q 1994 391 2212 530 
Q 2431 669 2431 922 
Q 2431 1156 2273 1281 
Q 2116 1406 1581 1522 
L 1381 1569 
Q 847 1681 609 1914 
Q 372 2147 372 2553 
Q 372 3047 722 3315 
Q 1072 3584 1716 3584 
Q 2034 3584 2315 3537 
Q 2597 3491 2834 3397 
z
" transform="scale(0.015625)"/>
       </defs>
       <use xlink:href="#DejaVuSans-6d"/>
       <use xlink:href="#DejaVuSans-69" transform="translate(97.412109 0)"/>
       <use xlink:href="#DejaVuSans-6e" transform="translate(125.195312 0)"/>
       <use xlink:href="#DejaVuSans-75" transform="translate(188.574219 0)"/>
       <use xlink:href="#DejaVuSans-74" transform="translate(251.953125 0)"/>
       <use xlink:href="#DejaVuSans-65" transform="translate(291.162109 0)"/>
       <use xlink:href="#DejaVuSans-73" transform="translate(352.685547 0)"/>
      </g>
     </g>
    </g>
    <g id="ytick_4">
     <g id="line2d_12">
      <g>
       <use xlink:href="#md13dbc06e9" x="73.152812" y="145.484698" style="stroke: #000000; stroke-width: 0.8"/>
      </g>
     </g>
     <g id="text_13">
      <!-- in -->
      <g transform="translate(57.94875 148.903995) scale(0.09 -0.09)">
       <use xlink:href="#DejaVuSans-69"/>
       <use xlink:href="#DejaVuSans-6e" transform="translate(27.783203 0)"/>
      </g>
     </g>
    </g>
    <g id="ytick_5">
     <g id="line2d_13">
      <g>
       <use xlink:href="#md13dbc06e9" x="73.152812" y="160.637523" style="stroke: #000000; stroke-width: 0.8"/>
      </g>
     </g>
     <g id="text_14">
      <!-- is -->
      <g transform="translate(58.964062 164.05682) scale(0.09 -0.09)">
       <use xlink:href="#DejaVuSans-69"/>
       <use xlink:href="#DejaVuSans-73" transform="translate(27.783203 0)"/>
      </g>
     </g>
    </g>
    <g id="ytick_6">
     <g id="line2d_14">
      <g>
       <use xlink:href="#md13dbc06e9" x="73.152812" y="175.790349" style="stroke: #000000; stroke-width: 0.8"/>
      </g>
     </g>
     <g id="text_15">
      <!-- code -->
      <g transform="translate(44.445937 179.209646) scale(0.09 -0.09)">
       <defs>
        <path id="DejaVuSans-63" d="M 3122 3366 
L 3122 2828 
Q 2878 2963 2633 3030 
Q 2388 3097 2138 3097 
Q 1578 3097 1268 2742 
Q 959 2388 959 1747 
Q 959 1106 1268 751 
Q 1578 397 2138 397 
Q 2388 397 2633 464 
Q 2878 531 3122 666 
L 3122 134 
Q 2881 22 2623 -34 
Q 2366 -91 2075 -91 
Q 1284 -91 818 406 
Q 353 903 353 1747 
Q 353 2603 823 3093 
Q 1294 3584 2113 3584 
Q 2378 3584 2631 3529 
Q 2884 3475 3122 3366 
z
" transform="scale(0.015625)"/>
        <path id="DejaVuSans-64" d="M 2906 2969 
L 2906 4863 
L 3481 4863 
L 3481 0 
L 2906 0 
L 2906 525 
Q 2725 213 2448 61 
Q 2172 -91 1784 -91 
Q 1150 -91 751 415 
Q 353 922 353 1747 
Q 353 2572 751 3078 
Q 1150 3584 1784 3584 
Q 2172 3584 2448 3432 
Q 2725 3281 2906 2969 
z
M 947 1747 
Q 947 1113 1208 752 
Q 1469 391 1925 391 
Q 2381 391 2643 752 
Q 2906 1113 2906 1747 
Q 2906 2381 2643 2742 
Q 2381 3103 1925 3103 
Q 1469 3103 1208 2742 
Q 947 2381 947 1747 
z
" transform="scale(0.015625)"/>
       </defs>
       <use xlink:href="#DejaVuSans-63"/>
       <use xlink:href="#DejaVuSans-6f" transform="translate(54.980469 0)"/>
       <use xlink:href="#DejaVuSans-64" transform="translate(116.162109 0)"/>
       <use xlink:href="#DejaVuSans-65" transform="translate(179.638672 0)"/>
      </g>
     </g>
    </g>
    <g id="ytick_7">
     <g id="line2d_15">
      <g>
       <use xlink:href="#md13dbc06e9" x="73.152812" y="190.943174" style="stroke: #000000; stroke-width: 0.8"/>
      </g>
     </g>
     <g id="text_16">
      <!-- am -->
      <g transform="translate(51.870937 194.362471) scale(0.09 -0.09)">
       <use xlink:href="#DejaVuSans-61"/>
       <use xlink:href="#DejaVuSans-6d" transform="translate(61.279297 0)"/>
      </g>
     </g>
    </g>
    <g id="ytick_8">
     <g id="line2d_16">
      <g>
       <use xlink:href="#md13dbc06e9" x="73.152812" y="206.096" style="stroke: #000000; stroke-width: 0.8"/>
      </g>
     </g>
     <g id="text_17">
      <!-- the -->
      <g transform="translate(51.382969 209.515297) scale(0.09 -0.09)">
       <use xlink:href="#DejaVuSans-74"/>
       <use xlink:href="#DejaVuSans-68" transform="translate(39.208984 0)"/>
       <use xlink:href="#DejaVuSans-65" transform="translate(102.587891 0)"/>
      </g>
     </g>
    </g>
    <g id="ytick_9">
     <g id="line2d_17">
      <g>
       <use xlink:href="#md13dbc06e9" x="73.152812" y="221.248826" style="stroke: #000000; stroke-width: 0.8"/>
      </g>
     </g>
     <g id="text_18">
      <!-- account -->
      <g transform="translate(30.297656 224.668122) scale(0.09 -0.09)">
       <use xlink:href="#DejaVuSans-61"/>
       <use xlink:href="#DejaVuSans-63" transform="translate(61.279297 0)"/>
       <use xlink:href="#DejaVuSans-63" transform="translate(116.259766 0)"/>
       <use xlink:href="#DejaVuSans-6f" transform="translate(171.240234 0)"/>
       <use xlink:href="#DejaVuSans-75" transform="translate(232.421875 0)"/>
       <use xlink:href="#DejaVuSans-6e" transform="translate(295.800781 0)"/>
       <use xlink:href="#DejaVuSans-74" transform="translate(359.179688 0)"/>
      </g>
     </g>
    </g>
    <g id="ytick_10">
     <g id="line2d_18">
      <g>
       <use xlink:href="#md13dbc06e9" x="73.152812" y="236.401651" style="stroke: #000000; stroke-width: 0.8"/>
      </g>
     </g>
     <g id="text_19">
      <!-- 00 -->
      <g transform="translate(54.700312 239.820948) scale(0.09 -0.09)">
       <use xlink:href="#DejaVuSans-30"/>
       <use xlink:href="#DejaVuSans-30" transform="translate(63.623047 0)"/>
      </g>
     </g>
    </g>
    <g id="ytick_11">
     <g id="line2d_19">
      <g>
       <use xlink:href="#md13dbc06e9" x="73.152812" y="251.554477" style="stroke: #000000; stroke-width: 0.8"/>
      </g>
     </g>
     <g id="text_20">
      <!-- detected -->
      <g transform="translate(26.107031 254.973774) scale(0.09 -0.09)">
       <use xlink:href="#DejaVuSans-64"/>
       <use xlink:href="#DejaVuSans-65" transform="translate(63.476562 0)"/>
       <use xlink:href="#DejaVuSans-74" transform="translate(125 0)"/>
       <use xlink:href="#DejaVuSans-65" transform="translate(164.208984 0)"/>
       <use xlink:href="#DejaVuSans-63" transform="translate(225.732422 0)"/>
       <use xlink:href="#DejaVuSans-74" transform="translate(280.712891 0)"/>
       <use xlink:href="#DejaVuSans-65" transform="translate(319.921875 0)"/>
       <use xlink:href="#DejaVuSans-64" transform="translate(381.445312 0)"/>
      </g>
     </g>
    </g>
    <g id="ytick_12">
     <g id="line2d_20">
      <g>
       <use xlink:href="#md13dbc06e9" x="73.152812" y="266.707302" style="stroke: #000000; stroke-width: 0.8"/>
      </g>
     </g>
     <g id="text_21">
      <!-- you -->
      <g transform="translate(49.615313 270.126599) scale(0.09 -0.09)">
       <use xlink:href="#DejaVuSans-79"/>
       <use xlink:href="#DejaVuSans-6f" transform="translate(59.179688 0)"/>
       <use xlink:href="#DejaVuSans-75" transform="translate(120.361328 0)"/>
      </g>
     </g>
    </g>
    <g id="ytick_13">
     <g id="line2d_21">
      <g>
       <use xlink:href="#md13dbc06e9" x="73.152812" y="281.860128" style="stroke: #000000; stroke-width: 0.8"/>
      </g>
     </g>
     <g id="text_22">
      <!-- 10 -->
      <g transform="translate(54.700312 285.279425) scale(0.09 -0.09)">
       <use xlink:href="#DejaVuSans-31"/>
       <use xlink:href="#DejaVuSans-30" transform="translate(63.623047 0)"/>
      </g>
     </g>
    </g>
    <g id="ytick_14">
     <g id="line2d_22">
      <g>
       <use xlink:href="#md13dbc06e9" x="73.152812" y="297.012953" style="stroke: #000000; stroke-width: 0.8"/>
      </g>
     </g>
     <g id="text_23">
      <!-- your account -->
      <g transform="translate(7.2 300.43225) scale(0.09 -0.09)">
       <use xlink:href="#DejaVuSans-79"/>
       <use xlink:href="#DejaVuSans-6f" transform="translate(59.179688 0)"/>
       <use xlink:href="#DejaVuSans-75" transform="translate(120.361328 0)"/>
       <use xlink:href="#DejaVuSans-72" transform="translate(183.740234 0)"/>
       <use xlink:href="#DejaVuSans-20" transform="translate(224.853516 0)"/>
       <use xlink:href="#DejaVuSans-61" transform="translate(256.640625 0)"/>
       <use xlink:href="#DejaVuSans-63" transform="translate(317.919922 0)"/>
       <use xlink:href="#DejaVuSans-63" transform="translate(372.900391 0)"/>
       <use xlink:href="#DejaVuSans-6f" transform="translate(427.880859 0)"/>
       <use xlink:href="#DejaVuSans-75" transform="translate(489.0625 0)"/>
       <use xlink:href="#DejaVuSans-6e" transform="translate(552.441406 0)"/>
       <use xlink:href="#DejaVuSans-74" transform="translate(615.820312 0)"/>
      </g>
     </g>
    </g>
    <g id="ytick_15">
     <g id="line2d_23">
      <g>
       <use xlink:href="#md13dbc06e9" x="73.152812" y="312.165779" style="stroke: #000000; stroke-width: 0.8"/>
      </g>
     </g>
     <g id="text_24">
      <!-- alarm -->
      <g transform="translate(40.312969 315.585076) scale(0.09 -0.09)">
       <defs>
        <path id="DejaVuSans-6c" d="M 603 4863 
L 1178 4863 
L 1178 0 
L 603 0 
L 603 4863 
z
" transform="scale(0.015625)"/>
       </defs>
       <use xlink:href="#DejaVuSans-61"/>
       <use xlink:href="#DejaVuSans-6c" transform="translate(61.279297 0)"/>
       <use xlink:href="#DejaVuSans-61" transform="translate(89.0625 0)"/>
       <use xlink:href="#DejaVuSans-72" transform="translate(150.341797 0)"/>
       <use xlink:href="#DejaVuSans-6d" transform="translate(189.705078 0)"/>
      </g>
     </g>
    </g>
   </g>
   <g id="patch_18">
    <path d="M 73.152812 329.44 
L 73.152812 82.752 
" style="fill: none; stroke: #000000; stroke-width: 0.8; stroke-linejoin: miter; stroke-linecap: square"/>
   </g>
   <g id="patch_19">
    <path d="M 73.152812 329.44 
L 387.672813 329.44 
" style="fill: none; stroke: #000000; stroke-width: 0.8; stroke-linejoin: miter; stroke-linecap: square"/>
   </g>
   <g id="text_25">
    <!-- High Urgency -->
    <g style="fill: #e74c3c" transform="translate(180.939688 76.752) scale(0.13 -0.13)">
     <defs>
      <path id="DejaVuSans-Bold-48" d="M 588 4666 
L 1791 4666 
L 1791 2888 
L 3566 2888 
L 3566 4666 
L 4769 4666 
L 4769 0 
L 3566 0 
L 3566 1978 
L 1791 1978 
L 1791 0 
L 588 0 
L 588 4666 
z
" transform="scale(0.015625)"/>
      <path id="DejaVuSans-Bold-69" d="M 538 3500 
L 1656 3500 
L 1656 0 
L 538 0 
L 538 3500 
z
M 538 4863 
L 1656 4863 
L 1656 3950 
L 538 3950 
L 538 4863 
z
" transform="scale(0.015625)"/>
      <path id="DejaVuSans-Bold-67" d="M 2919 594 
Q 2688 288 2409 144 
Q 2131 0 1766 0 
Q 1125 0 706 504 
Q 288 1009 288 1791 
Q 288 2575 706 3076 
Q 1125 3578 1766 3578 
Q 2131 3578 2409 3434 
Q 2688 3291 2919 2981 
L 2919 3500 
L 4044 3500 
L 4044 353 
Q 4044 -491 3511 -936 
Q 2978 -1381 1966 -1381 
Q 1638 -1381 1331 -1331 
Q 1025 -1281 716 -1178 
L 716 -306 
Q 1009 -475 1290 -558 
Q 1572 -641 1856 -641 
Q 2406 -641 2662 -400 
Q 2919 -159 2919 353 
L 2919 594 
z
M 2181 2772 
Q 1834 2772 1640 2515 
Q 1447 2259 1447 1791 
Q 1447 1309 1634 1061 
Q 1822 813 2181 813 
Q 2531 813 2725 1069 
Q 2919 1325 2919 1791 
Q 2919 2259 2725 2515 
Q 2531 2772 2181 2772 
z
" transform="scale(0.015625)"/>
      <path id="DejaVuSans-Bold-68" d="M 4056 2131 
L 4056 0 
L 2931 0 
L 2931 347 
L 2931 1625 
Q 2931 2084 2911 2256 
Q 2891 2428 2841 2509 
Q 2775 2619 2662 2680 
Q 2550 2741 2406 2741 
Q 2056 2741 1856 2470 
Q 1656 2200 1656 1722 
L 1656 0 
L 538 0 
L 538 4863 
L 1656 4863 
L 1656 2988 
Q 1909 3294 2193 3439 
Q 2478 3584 2822 3584 
Q 3428 3584 3742 3212 
Q 4056 2841 4056 2131 
z
" transform="scale(0.015625)"/>
      <path id="DejaVuSans-Bold-20" transform="scale(0.015625)"/>
      <path id="DejaVuSans-Bold-55" d="M 588 4666 
L 1791 4666 
L 1791 1869 
Q 1791 1291 1980 1042 
Q 2169 794 2597 794 
Q 3028 794 3217 1042 
Q 3406 1291 3406 1869 
L 3406 4666 
L 4609 4666 
L 4609 1869 
Q 4609 878 4112 393 
Q 3616 -91 2597 -91 
Q 1581 -91 1084 393 
Q 588 878 588 1869 
L 588 4666 
z
" transform="scale(0.015625)"/>
      <path id="DejaVuSans-Bold-72" d="M 3138 2547 
Q 2991 2616 2845 2648 
Q 2700 2681 2553 2681 
Q 2122 2681 1889 2404 
Q 1656 2128 1656 1613 
L 1656 0 
L 538 0 
L 538 3500 
L 1656 3500 
L 1656 2925 
Q 1872 3269 2151 3426 
Q 2431 3584 2822 3584 
Q 2878 3584 2943 3579 
Q 3009 3575 3134 3559 
L 3138 2547 
z
" transform="scale(0.015625)"/>
      <path id="DejaVuSans-Bold-65" d="M 4031 1759 
L 4031 1441 
L 1416 1441 
Q 1456 1047 1700 850 
Q 1944 653 2381 653 
Q 2734 653 3104 758 
Q 3475 863 3866 1075 
L 3866 213 
Q 3469 63 3072 -14 
Q 2675 -91 2278 -91 
Q 1328 -91 801 392 
Q 275 875 275 1747 
Q 275 2603 792 3093 
Q 1309 3584 2216 3584 
Q 3041 3584 3536 3087 
Q 4031 2591 4031 1759 
z
M 2881 2131 
Q 2881 2450 2695 2645 
Q 2509 2841 2209 2841 
Q 1884 2841 1681 2658 
Q 1478 2475 1428 2131 
L 2881 2131 
z
" transform="scale(0.015625)"/>
      <path id="DejaVuSans-Bold-6e" d="M 4056 2131 
L 4056 0 
L 2931 0 
L 2931 347 
L 2931 1631 
Q 2931 2084 2911 2256 
Q 2891 2428 2841 2509 
Q 2775 2619 2662 2680 
Q 2550 2741 2406 2741 
Q 2056 2741 1856 2470 
Q 1656 2200 1656 1722 
L 1656 0 
L 538 0 
L 538 3500 
L 1656 3500 
L 1656 2988 
Q 1909 3294 2193 3439 
Q 2478 3584 2822 3584 
Q 3428 3584 3742 3212 
Q 4056 2841 4056 2131 
z
" transform="scale(0.015625)"/>
      <path id="DejaVuSans-Bold-63" d="M 3366 3391 
L 3366 2478 
Q 3138 2634 2908 2709 
Q 2678 2784 2431 2784 
Q 1963 2784 1702 2511 
Q 1441 2238 1441 1747 
Q 1441 1256 1702 982 
Q 1963 709 2431 709 
Q 2694 709 2930 787 
Q 3166 866 3366 1019 
L 3366 103 
Q 3103 6 2833 -42 
Q 2563 -91 2291 -91 
Q 1344 -91 809 395 
Q 275 881 275 1747 
Q 275 2613 809 3098 
Q 1344 3584 2291 3584 
Q 2566 3584 2833 3536 
Q 3100 3488 3366 3391 
z
" transform="scale(0.015625)"/>
      <path id="DejaVuSans-Bold-79" d="M 78 3500 
L 1197 3500 
L 2138 1125 
L 2938 3500 
L 4056 3500 
L 2584 -331 
Q 2363 -916 2067 -1148 
Q 1772 -1381 1288 -1381 
L 641 -1381 
L 641 -647 
L 991 -647 
Q 1275 -647 1404 -556 
Q 1534 -466 1606 -231 
L 1638 -134 
L 78 3500 
z
" transform="scale(0.015625)"/>
     </defs>
     <use xlink:href="#DejaVuSans-Bold-48"/>
     <use xlink:href="#DejaVuSans-Bold-69" transform="translate(83.691406 0)"/>
     <use xlink:href="#DejaVuSans-Bold-67" transform="translate(117.96875 0)"/>
     <use xlink:href="#DejaVuSans-Bold-68" transform="translate(189.550781 0)"/>
     <use xlink:href="#DejaVuSans-Bold-20" transform="translate(260.742188 0)"/>
     <use xlink:href="#DejaVuSans-Bold-55" transform="translate(295.556641 0)"/>
     <use xlink:href="#DejaVuSans-Bold-72" transform="translate(376.757812 0)"/>
     <use xlink:href="#DejaVuSans-Bold-67" transform="translate(426.074219 0)"/>
     <use xlink:href="#DejaVuSans-Bold-65" transform="translate(497.65625 0)"/>
     <use xlink:href="#DejaVuSans-Bold-6e" transform="translate(565.478516 0)"/>
     <use xlink:href="#DejaVuSans-Bold-63" transform="translate(636.669922 0)"/>
     <use xlink:href="#DejaVuSans-Bold-79" transform="translate(695.947266 0)"/>
    </g>
   </g>
  </g>
  <g id="axes_2">
   <g id="patch_20">
    <path d="M 447.052813 329.44 
L 761.572813 329.44 
L 761.572813 82.752 
L 447.052813 82.752 
z
" style="fill: #ffffff"/>
   </g>
   <g id="patch_21">
    <path d="M 447.052813 93.965091 
L 746.59567 93.965091 
L 746.59567 106.087351 
L 447.052813 106.087351 
z
" clip-path="url(#p6bdac6c034)" style="fill: #f39c12; opacity: 0.85; stroke: #ffffff; stroke-linejoin: miter"/>
   </g>
   <g id="patch_22">
    <path d="M 447.052813 109.117916 
L 722.61419 109.117916 
L 722.61419 121.240177 
L 447.052813 121.240177 
z
" clip-path="url(#p6bdac6c034)" style="fill: #f39c12; opacity: 0.85; stroke: #ffffff; stroke-linejoin: miter"/>
   </g>
   <g id="patch_23">
    <path d="M 447.052813 124.270742 
L 718.610377 124.270742 
L 718.610377 136.393002 
L 447.052813 136.393002 
z
" clip-path="url(#p6bdac6c034)" style="fill: #f39c12; opacity: 0.85; stroke: #ffffff; stroke-linejoin: miter"/>
   </g>
   <g id="patch_24">
    <path d="M 447.052813 139.423568 
L 663.349882 139.423568 
L 663.349882 151.545828 
L 447.052813 151.545828 
z
" clip-path="url(#p6bdac6c034)" style="fill: #f39c12; opacity: 0.85; stroke: #ffffff; stroke-linejoin: miter"/>
   </g>
   <g id="patch_25">
    <path d="M 447.052813 154.576393 
L 648.217157 154.576393 
L 648.217157 166.698654 
L 447.052813 166.698654 
z
" clip-path="url(#p6bdac6c034)" style="fill: #f39c12; opacity: 0.85; stroke: #ffffff; stroke-linejoin: miter"/>
   </g>
   <g id="patch_26">
    <path d="M 447.052813 169.729219 
L 636.329801 169.729219 
L 636.329801 181.851479 
L 447.052813 181.851479 
z
" clip-path="url(#p6bdac6c034)" style="fill: #f39c12; opacity: 0.85; stroke: #ffffff; stroke-linejoin: miter"/>
   </g>
   <g id="patch_27">
    <path d="M 447.052813 184.882044 
L 619.389265 184.882044 
L 619.389265 197.004305 
L 447.052813 197.004305 
z
" clip-path="url(#p6bdac6c034)" style="fill: #f39c12; opacity: 0.85; stroke: #ffffff; stroke-linejoin: miter"/>
   </g>
   <g id="patch_28">
    <path d="M 447.052813 200.03487 
L 599.235049 200.03487 
L 599.235049 212.15713 
L 447.052813 212.15713 
z
" clip-path="url(#p6bdac6c034)" style="fill: #f39c12; opacity: 0.85; stroke: #ffffff; stroke-linejoin: miter"/>
   </g>
   <g id="patch_29">
    <path d="M 447.052813 215.187695 
L 594.626194 215.187695 
L 594.626194 227.309956 
L 447.052813 227.309956 
z
" clip-path="url(#p6bdac6c034)" style="fill: #f39c12; opacity: 0.85; stroke: #ffffff; stroke-linejoin: miter"/>
   </g>
   <g id="patch_30">
    <path d="M 447.052813 230.340521 
L 591.012823 230.340521 
L 591.012823 242.462781 
L 447.052813 242.462781 
z
" clip-path="url(#p6bdac6c034)" style="fill: #f39c12; opacity: 0.85; stroke: #ffffff; stroke-linejoin: miter"/>
   </g>
   <g id="patch_31">
    <path d="M 447.052813 245.493346 
L 587.884648 245.493346 
L 587.884648 257.615607 
L 447.052813 257.615607 
z
" clip-path="url(#p6bdac6c034)" style="fill: #f39c12; opacity: 0.85; stroke: #ffffff; stroke-linejoin: miter"/>
   </g>
   <g id="patch_32">
    <path d="M 447.052813 260.646172 
L 578.298474 260.646172 
L 578.298474 272.768432 
L 447.052813 272.768432 
z
" clip-path="url(#p6bdac6c034)" style="fill: #f39c12; opacity: 0.85; stroke: #ffffff; stroke-linejoin: miter"/>
   </g>
   <g id="patch_33">
    <path d="M 447.052813 275.798998 
L 577.93724 275.798998 
L 577.93724 287.921258 
L 447.052813 287.921258 
z
" clip-path="url(#p6bdac6c034)" style="fill: #f39c12; opacity: 0.85; stroke: #ffffff; stroke-linejoin: miter"/>
   </g>
   <g id="patch_34">
    <path d="M 447.052813 290.951823 
L 576.819704 290.951823 
L 576.819704 303.074084 
L 447.052813 303.074084 
z
" clip-path="url(#p6bdac6c034)" style="fill: #f39c12; opacity: 0.85; stroke: #ffffff; stroke-linejoin: miter"/>
   </g>
   <g id="patch_35">
    <path d="M 447.052813 306.104649 
L 576.336574 306.104649 
L 576.336574 318.226909 
L 447.052813 318.226909 
z
" clip-path="url(#p6bdac6c034)" style="fill: #f39c12; opacity: 0.85; stroke: #ffffff; stroke-linejoin: miter"/>
   </g>
   <g id="matplotlib.axis_3">
    <g id="xtick_9">
     <g id="line2d_24">
      <g>
       <use xlink:href="#m4ed00635a2" x="447.052813" y="329.44" style="stroke: #000000; stroke-width: 0.8"/>
      </g>
     </g>
     <g id="text_26">
      <!-- 0.00 -->
      <g transform="translate(434.806719 344.798281) scale(0.11 -0.11)">
       <use xlink:href="#DejaVuSans-30"/>
       <use xlink:href="#DejaVuSans-2e" transform="translate(63.623047 0)"/>
       <use xlink:href="#DejaVuSans-30" transform="translate(95.410156 0)"/>
       <use xlink:href="#DejaVuSans-30" transform="translate(159.033203 0)"/>
      </g>
     </g>
    </g>
    <g id="xtick_10">
     <g id="line2d_25">
      <g>
       <use xlink:href="#m4ed00635a2" x="493.433804" y="329.44" style="stroke: #000000; stroke-width: 0.8"/>
      </g>
     </g>
     <g id="text_27">
      <!-- 0.01 -->
      <g transform="translate(481.187711 344.798281) scale(0.11 -0.11)">
       <use xlink:href="#DejaVuSans-30"/>
       <use xlink:href="#DejaVuSans-2e" transform="translate(63.623047 0)"/>
       <use xlink:href="#DejaVuSans-30" transform="translate(95.410156 0)"/>
       <use xlink:href="#DejaVuSans-31" transform="translate(159.033203 0)"/>
      </g>
     </g>
    </g>
    <g id="xtick_11">
     <g id="line2d_26">
      <g>
       <use xlink:href="#m4ed00635a2" x="539.814796" y="329.44" style="stroke: #000000; stroke-width: 0.8"/>
      </g>
     </g>
     <g id="text_28">
      <!-- 0.02 -->
      <g transform="translate(527.568702 344.798281) scale(0.11 -0.11)">
       <use xlink:href="#DejaVuSans-30"/>
       <use xlink:href="#DejaVuSans-2e" transform="translate(63.623047 0)"/>
       <use xlink:href="#DejaVuSans-30" transform="translate(95.410156 0)"/>
       <use xlink:href="#DejaVuSans-32" transform="translate(159.033203 0)"/>
      </g>
     </g>
    </g>
    <g id="xtick_12">
     <g id="line2d_27">
      <g>
       <use xlink:href="#m4ed00635a2" x="586.195788" y="329.44" style="stroke: #000000; stroke-width: 0.8"/>
      </g>
     </g>
     <g id="text_29">
      <!-- 0.03 -->
      <g transform="translate(573.949694 344.798281) scale(0.11 -0.11)">
       <use xlink:href="#DejaVuSans-30"/>
       <use xlink:href="#DejaVuSans-2e" transform="translate(63.623047 0)"/>
       <use xlink:href="#DejaVuSans-30" transform="translate(95.410156 0)"/>
       <use xlink:href="#DejaVuSans-33" transform="translate(159.033203 0)"/>
      </g>
     </g>
    </g>
    <g id="xtick_13">
     <g id="line2d_28">
      <g>
       <use xlink:href="#m4ed00635a2" x="632.57678" y="329.44" style="stroke: #000000; stroke-width: 0.8"/>
      </g>
     </g>
     <g id="text_30">
      <!-- 0.04 -->
      <g transform="translate(620.330686 344.798281) scale(0.11 -0.11)">
       <use xlink:href="#DejaVuSans-30"/>
       <use xlink:href="#DejaVuSans-2e" transform="translate(63.623047 0)"/>
       <use xlink:href="#DejaVuSans-30" transform="translate(95.410156 0)"/>
       <use xlink:href="#DejaVuSans-34" transform="translate(159.033203 0)"/>
      </g>
     </g>
    </g>
    <g id="xtick_14">
     <g id="line2d_29">
      <g>
       <use xlink:href="#m4ed00635a2" x="678.957771" y="329.44" style="stroke: #000000; stroke-width: 0.8"/>
      </g>
     </g>
     <g id="text_31">
      <!-- 0.05 -->
      <g transform="translate(666.711678 344.798281) scale(0.11 -0.11)">
       <use xlink:href="#DejaVuSans-30"/>
       <use xlink:href="#DejaVuSans-2e" transform="translate(63.623047 0)"/>
       <use xlink:href="#DejaVuSans-30" transform="translate(95.410156 0)"/>
       <use xlink:href="#DejaVuSans-35" transform="translate(159.033203 0)"/>
      </g>
     </g>
    </g>
    <g id="xtick_15">
     <g id="line2d_30">
      <g>
       <use xlink:href="#m4ed00635a2" x="725.338763" y="329.44" style="stroke: #000000; stroke-width: 0.8"/>
      </g>
     </g>
     <g id="text_32">
      <!-- 0.06 -->
      <g transform="translate(713.09267 344.798281) scale(0.11 -0.11)">
       <use xlink:href="#DejaVuSans-30"/>
       <use xlink:href="#DejaVuSans-2e" transform="translate(63.623047 0)"/>
       <use xlink:href="#DejaVuSans-30" transform="translate(95.410156 0)"/>
       <use xlink:href="#DejaVuSans-36" transform="translate(159.033203 0)"/>
      </g>
     </g>
    </g>
    <g id="text_33">
     <!-- Mean TF-IDF Weight -->
     <g transform="translate(549.142656 359.444219) scale(0.11 -0.11)">
      <use xlink:href="#DejaVuSans-4d"/>
      <use xlink:href="#DejaVuSans-65" transform="translate(86.279297 0)"/>
      <use xlink:href="#DejaVuSans-61" transform="translate(147.802734 0)"/>
      <use xlink:href="#DejaVuSans-6e" transform="translate(209.082031 0)"/>
      <use xlink:href="#DejaVuSans-20" transform="translate(272.460938 0)"/>
      <use xlink:href="#DejaVuSans-54" transform="translate(304.248047 0)"/>
      <use xlink:href="#DejaVuSans-46" transform="translate(365.332031 0)"/>
      <use xlink:href="#DejaVuSans-2d" transform="translate(422.851562 0)"/>
      <use xlink:href="#DejaVuSans-49" transform="translate(458.935547 0)"/>
      <use xlink:href="#DejaVuSans-44" transform="translate(488.427734 0)"/>
      <use xlink:href="#DejaVuSans-46" transform="translate(565.429688 0)"/>
      <use xlink:href="#DejaVuSans-20" transform="translate(622.949219 0)"/>
      <use xlink:href="#DejaVuSans-57" transform="translate(654.736328 0)"/>
      <use xlink:href="#DejaVuSans-65" transform="translate(747.738281 0)"/>
      <use xlink:href="#DejaVuSans-69" transform="translate(809.261719 0)"/>
      <use xlink:href="#DejaVuSans-67" transform="translate(837.044922 0)"/>
      <use xlink:href="#DejaVuSans-68" transform="translate(900.521484 0)"/>
      <use xlink:href="#DejaVuSans-74" transform="translate(963.900391 0)"/>
     </g>
    </g>
   </g>
   <g id="matplotlib.axis_4">
    <g id="ytick_16">
     <g id="line2d_31">
      <g>
       <use xlink:href="#md13dbc06e9" x="447.052813" y="100.026221" style="stroke: #000000; stroke-width: 0.8"/>
      </g>
     </g>
     <g id="text_34">
      <!-- you -->
      <g transform="translate(423.515313 103.445518) scale(0.09 -0.09)">
       <use xlink:href="#DejaVuSans-79"/>
       <use xlink:href="#DejaVuSans-6f" transform="translate(59.179688 0)"/>
       <use xlink:href="#DejaVuSans-75" transform="translate(120.361328 0)"/>
      </g>
     </g>
    </g>
    <g id="ytick_17">
     <g id="line2d_32">
      <g>
       <use xlink:href="#md13dbc06e9" x="447.052813" y="115.179047" style="stroke: #000000; stroke-width: 0.8"/>
      </g>
     </g>
     <g id="text_35">
      <!-- your -->
      <g transform="translate(419.815469 118.598344) scale(0.09 -0.09)">
       <use xlink:href="#DejaVuSans-79"/>
       <use xlink:href="#DejaVuSans-6f" transform="translate(59.179688 0)"/>
       <use xlink:href="#DejaVuSans-75" transform="translate(120.361328 0)"/>
       <use xlink:href="#DejaVuSans-72" transform="translate(183.740234 0)"/>
      </g>
     </g>
    </g>
    <g id="ytick_18">
     <g id="line2d_33">
      <g>
       <use xlink:href="#md13dbc06e9" x="447.052813" y="130.331872" style="stroke: #000000; stroke-width: 0.8"/>
      </g>
     </g>
     <g id="text_36">
      <!-- is -->
      <g transform="translate(432.864063 133.751169) scale(0.09 -0.09)">
       <use xlink:href="#DejaVuSans-69"/>
       <use xlink:href="#DejaVuSans-73" transform="translate(27.783203 0)"/>
      </g>
     </g>
    </g>
    <g id="ytick_19">
     <g id="line2d_34">
      <g>
       <use xlink:href="#md13dbc06e9" x="447.052813" y="145.484698" style="stroke: #000000; stroke-width: 0.8"/>
      </g>
     </g>
     <g id="text_37">
      <!-- the -->
      <g transform="translate(425.282969 148.903995) scale(0.09 -0.09)">
       <use xlink:href="#DejaVuSans-74"/>
       <use xlink:href="#DejaVuSans-68" transform="translate(39.208984 0)"/>
       <use xlink:href="#DejaVuSans-65" transform="translate(102.587891 0)"/>
      </g>
     </g>
    </g>
    <g id="ytick_20">
     <g id="line2d_35">
      <g>
       <use xlink:href="#md13dbc06e9" x="447.052813" y="160.637523" style="stroke: #000000; stroke-width: 0.8"/>
      </g>
     </g>
     <g id="text_38">
      <!-- from -->
      <g transform="translate(419.11375 164.05682) scale(0.09 -0.09)">
       <defs>
        <path id="DejaVuSans-66" d="M 2375 4863 
L 2375 4384 
L 1825 4384 
Q 1516 4384 1395 4259 
Q 1275 4134 1275 3809 
L 1275 3500 
L 2222 3500 
L 2222 3053 
L 1275 3053 
L 1275 0 
L 697 0 
L 697 3053 
L 147 3053 
L 147 3500 
L 697 3500 
L 697 3744 
Q 697 4328 969 4595 
Q 1241 4863 1831 4863 
L 2375 4863 
z
" transform="scale(0.015625)"/>
       </defs>
       <use xlink:href="#DejaVuSans-66"/>
       <use xlink:href="#DejaVuSans-72" transform="translate(35.205078 0)"/>
       <use xlink:href="#DejaVuSans-6f" transform="translate(74.068359 0)"/>
       <use xlink:href="#DejaVuSans-6d" transform="translate(135.25 0)"/>
      </g>
     </g>
    </g>
    <g id="ytick_21">
     <g id="line2d_36">
      <g>
       <use xlink:href="#md13dbc06e9" x="447.052813" y="175.790349" style="stroke: #000000; stroke-width: 0.8"/>
      </g>
     </g>
     <g id="text_39">
      <!-- in -->
      <g transform="translate(431.84875 179.209646) scale(0.09 -0.09)">
       <use xlink:href="#DejaVuSans-69"/>
       <use xlink:href="#DejaVuSans-6e" transform="translate(27.783203 0)"/>
      </g>
     </g>
    </g>
    <g id="ytick_22">
     <g id="line2d_37">
      <g>
       <use xlink:href="#md13dbc06e9" x="447.052813" y="190.943174" style="stroke: #000000; stroke-width: 0.8"/>
      </g>
     </g>
     <g id="text_40">
      <!-- for -->
      <g transform="translate(427.677813 194.362471) scale(0.09 -0.09)">
       <use xlink:href="#DejaVuSans-66"/>
       <use xlink:href="#DejaVuSans-6f" transform="translate(35.205078 0)"/>
       <use xlink:href="#DejaVuSans-72" transform="translate(96.386719 0)"/>
      </g>
     </g>
    </g>
    <g id="ytick_23">
     <g id="line2d_38">
      <g>
       <use xlink:href="#md13dbc06e9" x="447.052813" y="206.096" style="stroke: #000000; stroke-width: 0.8"/>
      </g>
     </g>
     <g id="text_41">
      <!-- pm -->
      <g transform="translate(425.572656 209.515297) scale(0.09 -0.09)">
       <defs>
        <path id="DejaVuSans-70" d="M 1159 525 
L 1159 -1331 
L 581 -1331 
L 581 3500 
L 1159 3500 
L 1159 2969 
Q 1341 3281 1617 3432 
Q 1894 3584 2278 3584 
Q 2916 3584 3314 3078 
Q 3713 2572 3713 1747 
Q 3713 922 3314 415 
Q 2916 -91 2278 -91 
Q 1894 -91 1617 61 
Q 1341 213 1159 525 
z
M 3116 1747 
Q 3116 2381 2855 2742 
Q 2594 3103 2138 3103 
Q 1681 3103 1420 2742 
Q 1159 2381 1159 1747 
Q 1159 1113 1420 752 
Q 1681 391 2138 391 
Q 2594 391 2855 752 
Q 3116 1113 3116 1747 
z
" transform="scale(0.015625)"/>
       </defs>
       <use xlink:href="#DejaVuSans-70"/>
       <use xlink:href="#DejaVuSans-6d" transform="translate(63.476562 0)"/>
      </g>
     </g>
    </g>
    <g id="ytick_24">
     <g id="line2d_39">
      <g>
       <use xlink:href="#md13dbc06e9" x="447.052813" y="221.248826" style="stroke: #000000; stroke-width: 0.8"/>
      </g>
     </g>
     <g id="text_42">
      <!-- at -->
      <g transform="translate(431.009219 224.668122) scale(0.09 -0.09)">
       <use xlink:href="#DejaVuSans-61"/>
       <use xlink:href="#DejaVuSans-74" transform="translate(61.279297 0)"/>
      </g>
     </g>
    </g>
    <g id="ytick_25">
     <g id="line2d_40">
      <g>
       <use xlink:href="#md13dbc06e9" x="447.052813" y="236.401651" style="stroke: #000000; stroke-width: 0.8"/>
      </g>
     </g>
     <g id="text_43">
      <!-- available -->
      <g transform="translate(399.427656 239.820948) scale(0.09 -0.09)">
       <defs>
        <path id="DejaVuSans-76" d="M 191 3500 
L 800 3500 
L 1894 563 
L 2988 3500 
L 3597 3500 
L 2284 0 
L 1503 0 
L 191 3500 
z
" transform="scale(0.015625)"/>
        <path id="DejaVuSans-62" d="M 3116 1747 
Q 3116 2381 2855 2742 
Q 2594 3103 2138 3103 
Q 1681 3103 1420 2742 
Q 1159 2381 1159 1747 
Q 1159 1113 1420 752 
Q 1681 391 2138 391 
Q 2594 391 2855 752 
Q 3116 1113 3116 1747 
z
M 1159 2969 
Q 1341 3281 1617 3432 
Q 1894 3584 2278 3584 
Q 2916 3584 3314 3078 
Q 3713 2572 3713 1747 
Q 3713 922 3314 415 
Q 2916 -91 2278 -91 
Q 1894 -91 1617 61 
Q 1341 213 1159 525 
L 1159 0 
L 581 0 
L 581 4863 
L 1159 4863 
L 1159 2969 
z
" transform="scale(0.015625)"/>
       </defs>
       <use xlink:href="#DejaVuSans-61"/>
       <use xlink:href="#DejaVuSans-76" transform="translate(61.279297 0)"/>
       <use xlink:href="#DejaVuSans-61" transform="translate(120.458984 0)"/>
       <use xlink:href="#DejaVuSans-69" transform="translate(181.738281 0)"/>
       <use xlink:href="#DejaVuSans-6c" transform="translate(209.521484 0)"/>
       <use xlink:href="#DejaVuSans-61" transform="translate(237.304688 0)"/>
       <use xlink:href="#DejaVuSans-62" transform="translate(298.583984 0)"/>
       <use xlink:href="#DejaVuSans-6c" transform="translate(362.060547 0)"/>
       <use xlink:href="#DejaVuSans-65" transform="translate(389.84375 0)"/>
      </g>
     </g>
    </g>
    <g id="ytick_26">
     <g id="line2d_41">
      <g>
       <use xlink:href="#md13dbc06e9" x="447.052813" y="251.554477" style="stroke: #000000; stroke-width: 0.8"/>
      </g>
     </g>
     <g id="text_44">
      <!-- amount -->
      <g transform="translate(405.328281 254.973774) scale(0.09 -0.09)">
       <use xlink:href="#DejaVuSans-61"/>
       <use xlink:href="#DejaVuSans-6d" transform="translate(61.279297 0)"/>
       <use xlink:href="#DejaVuSans-6f" transform="translate(158.691406 0)"/>
       <use xlink:href="#DejaVuSans-75" transform="translate(219.873047 0)"/>
       <use xlink:href="#DejaVuSans-6e" transform="translate(283.251953 0)"/>
       <use xlink:href="#DejaVuSans-74" transform="translate(346.630859 0)"/>
      </g>
     </g>
    </g>
    <g id="ytick_27">
     <g id="line2d_42">
      <g>
       <use xlink:href="#md13dbc06e9" x="447.052813" y="266.707302" style="stroke: #000000; stroke-width: 0.8"/>
      </g>
     </g>
     <g id="text_45">
      <!-- received -->
      <g transform="translate(401.452656 270.126599) scale(0.09 -0.09)">
       <use xlink:href="#DejaVuSans-72"/>
       <use xlink:href="#DejaVuSans-65" transform="translate(38.863281 0)"/>
       <use xlink:href="#DejaVuSans-63" transform="translate(100.386719 0)"/>
       <use xlink:href="#DejaVuSans-65" transform="translate(155.367188 0)"/>
       <use xlink:href="#DejaVuSans-69" transform="translate(216.890625 0)"/>
       <use xlink:href="#DejaVuSans-76" transform="translate(244.673828 0)"/>
       <use xlink:href="#DejaVuSans-65" transform="translate(303.853516 0)"/>
       <use xlink:href="#DejaVuSans-64" transform="translate(365.376953 0)"/>
      </g>
     </g>
    </g>
    <g id="ytick_28">
     <g id="line2d_43">
      <g>
       <use xlink:href="#md13dbc06e9" x="447.052813" y="281.860128" style="stroke: #000000; stroke-width: 0.8"/>
      </g>
     </g>
     <g id="text_46">
      <!-- to -->
      <g transform="translate(431.017656 285.279425) scale(0.09 -0.09)">
       <use xlink:href="#DejaVuSans-74"/>
       <use xlink:href="#DejaVuSans-6f" transform="translate(39.208984 0)"/>
      </g>
     </g>
    </g>
    <g id="ytick_29">
     <g id="line2d_44">
      <g>
       <use xlink:href="#md13dbc06e9" x="447.052813" y="297.012953" style="stroke: #000000; stroke-width: 0.8"/>
      </g>
     </g>
     <g id="text_47">
      <!-- are -->
      <g transform="translate(425.502344 300.43225) scale(0.09 -0.09)">
       <use xlink:href="#DejaVuSans-61"/>
       <use xlink:href="#DejaVuSans-72" transform="translate(61.279297 0)"/>
       <use xlink:href="#DejaVuSans-65" transform="translate(100.142578 0)"/>
      </g>
     </g>
    </g>
    <g id="ytick_30">
     <g id="line2d_45">
      <g>
       <use xlink:href="#md13dbc06e9" x="447.052813" y="312.165779" style="stroke: #000000; stroke-width: 0.8"/>
      </g>
     </g>
     <g id="text_48">
      <!-- name -->
      <g transform="translate(414.529375 315.585076) scale(0.09 -0.09)">
       <use xlink:href="#DejaVuSans-6e"/>
       <use xlink:href="#DejaVuSans-61" transform="translate(63.378906 0)"/>
       <use xlink:href="#DejaVuSans-6d" transform="translate(124.658203 0)"/>
       <use xlink:href="#DejaVuSans-65" transform="translate(222.070312 0)"/>
      </g>
     </g>
    </g>
   </g>
   <g id="patch_36">
    <path d="M 447.052813 329.44 
L 447.052813 82.752 
" style="fill: none; stroke: #000000; stroke-width: 0.8; stroke-linejoin: miter; stroke-linecap: square"/>
   </g>
   <g id="patch_37">
    <path d="M 447.052813 329.44 
L 761.572813 329.44 
" style="fill: none; stroke: #000000; stroke-width: 0.8; stroke-linejoin: miter; stroke-linecap: square"/>
   </g>
   <g id="text_49">
    <!-- Medium Urgency -->
    <g style="fill: #f39c12" transform="translate(542.628828 76.752) scale(0.13 -0.13)">
     <defs>
      <path id="DejaVuSans-Bold-4d" d="M 588 4666 
L 2119 4666 
L 3181 2169 
L 4250 4666 
L 5778 4666 
L 5778 0 
L 4641 0 
L 4641 3413 
L 3566 897 
L 2803 897 
L 1728 3413 
L 1728 0 
L 588 0 
L 588 4666 
z
" transform="scale(0.015625)"/>
      <path id="DejaVuSans-Bold-64" d="M 2919 2988 
L 2919 4863 
L 4044 4863 
L 4044 0 
L 2919 0 
L 2919 506 
Q 2688 197 2409 53 
Q 2131 -91 1766 -91 
Q 1119 -91 703 423 
Q 288 938 288 1747 
Q 288 2556 703 3070 
Q 1119 3584 1766 3584 
Q 2128 3584 2408 3439 
Q 2688 3294 2919 2988 
z
M 2181 722 
Q 2541 722 2730 984 
Q 2919 1247 2919 1747 
Q 2919 2247 2730 2509 
Q 2541 2772 2181 2772 
Q 1825 2772 1636 2509 
Q 1447 2247 1447 1747 
Q 1447 1247 1636 984 
Q 1825 722 2181 722 
z
" transform="scale(0.015625)"/>
      <path id="DejaVuSans-Bold-75" d="M 500 1363 
L 500 3500 
L 1625 3500 
L 1625 3150 
Q 1625 2866 1622 2436 
Q 1619 2006 1619 1863 
Q 1619 1441 1641 1255 
Q 1663 1069 1716 984 
Q 1784 875 1895 815 
Q 2006 756 2150 756 
Q 2500 756 2700 1025 
Q 2900 1294 2900 1772 
L 2900 3500 
L 4019 3500 
L 4019 0 
L 2900 0 
L 2900 506 
Q 2647 200 2364 54 
Q 2081 -91 1741 -91 
Q 1134 -91 817 281 
Q 500 653 500 1363 
z
" transform="scale(0.015625)"/>
      <path id="DejaVuSans-Bold-6d" d="M 3781 2919 
Q 3994 3244 4286 3414 
Q 4578 3584 4928 3584 
Q 5531 3584 5847 3212 
Q 6163 2841 6163 2131 
L 6163 0 
L 5038 0 
L 5038 1825 
Q 5041 1866 5042 1909 
Q 5044 1953 5044 2034 
Q 5044 2406 4934 2573 
Q 4825 2741 4581 2741 
Q 4263 2741 4089 2478 
Q 3916 2216 3909 1719 
L 3909 0 
L 2784 0 
L 2784 1825 
Q 2784 2406 2684 2573 
Q 2584 2741 2328 2741 
Q 2006 2741 1831 2477 
Q 1656 2213 1656 1722 
L 1656 0 
L 531 0 
L 531 3500 
L 1656 3500 
L 1656 2988 
Q 1863 3284 2130 3434 
Q 2397 3584 2719 3584 
Q 3081 3584 3359 3409 
Q 3638 3234 3781 2919 
z
" transform="scale(0.015625)"/>
     </defs>
     <use xlink:href="#DejaVuSans-Bold-4d"/>
     <use xlink:href="#DejaVuSans-Bold-65" transform="translate(99.511719 0)"/>
     <use xlink:href="#DejaVuSans-Bold-64" transform="translate(167.333984 0)"/>
     <use xlink:href="#DejaVuSans-Bold-69" transform="translate(238.916016 0)"/>
     <use xlink:href="#DejaVuSans-Bold-75" transform="translate(273.193359 0)"/>
     <use xlink:href="#DejaVuSans-Bold-6d" transform="translate(344.384766 0)"/>
     <use xlink:href="#DejaVuSans-Bold-20" transform="translate(448.583984 0)"/>
     <use xlink:href="#DejaVuSans-Bold-55" transform="translate(483.398438 0)"/>
     <use xlink:href="#DejaVuSans-Bold-72" transform="translate(564.599609 0)"/>
     <use xlink:href="#DejaVuSans-Bold-67" transform="translate(613.916016 0)"/>
     <use xlink:href="#DejaVuSans-Bold-65" transform="translate(685.498047 0)"/>
     <use xlink:href="#DejaVuSans-Bold-6e" transform="translate(753.320312 0)"/>
     <use xlink:href="#DejaVuSans-Bold-63" transform="translate(824.511719 0)"/>
     <use xlink:href="#DejaVuSans-Bold-79" transform="translate(883.789062 0)"/>
    </g>
   </g>
  </g>
  <g id="axes_3">
   <g id="patch_38">
    <path d="M 820.952813 329.44 
L 1135.472813 329.44 
L 1135.472813 82.752 
L 820.952813 82.752 
z
" style="fill: #ffffff"/>
   </g>
   <g id="patch_39">
    <path d="M 820.952813 93.965091 
L 1120.49567 93.965091 
L 1120.49567 106.087351 
L 820.952813 106.087351 
z
" clip-path="url(#p3c93aa44ec)" style="fill: #2ecc71; opacity: 0.85; stroke: #ffffff; stroke-linejoin: miter"/>
   </g>
   <g id="patch_40">
    <path d="M 820.952813 109.117916 
L 1036.162234 109.117916 
L 1036.162234 121.240177 
L 820.952813 121.240177 
z
" clip-path="url(#p3c93aa44ec)" style="fill: #2ecc71; opacity: 0.85; stroke: #ffffff; stroke-linejoin: miter"/>
   </g>
   <g id="patch_41">
    <path d="M 820.952813 124.270742 
L 1014.134186 124.270742 
L 1014.134186 136.393002 
L 820.952813 136.393002 
z
" clip-path="url(#p3c93aa44ec)" style="fill: #2ecc71; opacity: 0.85; stroke: #ffffff; stroke-linejoin: miter"/>
   </g>
   <g id="patch_42">
    <path d="M 820.952813 139.423568 
L 995.377438 139.423568 
L 995.377438 151.545828 
L 820.952813 151.545828 
z
" clip-path="url(#p3c93aa44ec)" style="fill: #2ecc71; opacity: 0.85; stroke: #ffffff; stroke-linejoin: miter"/>
   </g>
   <g id="patch_43">
    <path d="M 820.952813 154.576393 
L 972.118871 154.576393 
L 972.118871 166.698654 
L 820.952813 166.698654 
z
" clip-path="url(#p3c93aa44ec)" style="fill: #2ecc71; opacity: 0.85; stroke: #ffffff; stroke-linejoin: miter"/>
   </g>
   <g id="patch_44">
    <path d="M 820.952813 169.729219 
L 941.903992 169.729219 
L 941.903992 181.851479 
L 820.952813 181.851479 
z
" clip-path="url(#p3c93aa44ec)" style="fill: #2ecc71; opacity: 0.85; stroke: #ffffff; stroke-linejoin: miter"/>
   </g>
   <g id="patch_45">
    <path d="M 820.952813 184.882044 
L 941.827496 184.882044 
L 941.827496 197.004305 
L 820.952813 197.004305 
z
" clip-path="url(#p3c93aa44ec)" style="fill: #2ecc71; opacity: 0.85; stroke: #ffffff; stroke-linejoin: miter"/>
   </g>
   <g id="patch_46">
    <path d="M 820.952813 200.03487 
L 939.709717 200.03487 
L 939.709717 212.15713 
L 820.952813 212.15713 
z
" clip-path="url(#p3c93aa44ec)" style="fill: #2ecc71; opacity: 0.85; stroke: #ffffff; stroke-linejoin: miter"/>
   </g>
   <g id="patch_47">
    <path d="M 820.952813 215.187695 
L 934.226444 215.187695 
L 934.226444 227.309956 
L 820.952813 227.309956 
z
" clip-path="url(#p3c93aa44ec)" style="fill: #2ecc71; opacity: 0.85; stroke: #ffffff; stroke-linejoin: miter"/>
   </g>
   <g id="patch_48">
    <path d="M 820.952813 230.340521 
L 930.220482 230.340521 
L 930.220482 242.462781 
L 820.952813 242.462781 
z
" clip-path="url(#p3c93aa44ec)" style="fill: #2ecc71; opacity: 0.85; stroke: #ffffff; stroke-linejoin: miter"/>
   </g>
   <g id="patch_49">
    <path d="M 820.952813 245.493346 
L 922.645281 245.493346 
L 922.645281 257.615607 
L 820.952813 257.615607 
z
" clip-path="url(#p3c93aa44ec)" style="fill: #2ecc71; opacity: 0.85; stroke: #ffffff; stroke-linejoin: miter"/>
   </g>
   <g id="patch_50">
    <path d="M 820.952813 260.646172 
L 914.598336 260.646172 
L 914.598336 272.768432 
L 820.952813 272.768432 
z
" clip-path="url(#p3c93aa44ec)" style="fill: #2ecc71; opacity: 0.85; stroke: #ffffff; stroke-linejoin: miter"/>
   </g>
   <g id="patch_51">
    <path d="M 820.952813 275.798998 
L 914.175615 275.798998 
L 914.175615 287.921258 
L 820.952813 287.921258 
z
" clip-path="url(#p3c93aa44ec)" style="fill: #2ecc71; opacity: 0.85; stroke: #ffffff; stroke-linejoin: miter"/>
   </g>
   <g id="patch_52">
    <path d="M 820.952813 290.951823 
L 913.19125 290.951823 
L 913.19125 303.074084 
L 820.952813 303.074084 
z
" clip-path="url(#p3c93aa44ec)" style="fill: #2ecc71; opacity: 0.85; stroke: #ffffff; stroke-linejoin: miter"/>
   </g>
   <g id="patch_53">
    <path d="M 820.952813 306.104649 
L 908.733456 306.104649 
L 908.733456 318.226909 
L 820.952813 318.226909 
z
" clip-path="url(#p3c93aa44ec)" style="fill: #2ecc71; opacity: 0.85; stroke: #ffffff; stroke-linejoin: miter"/>
   </g>
   <g id="matplotlib.axis_5">
    <g id="xtick_16">
     <g id="line2d_46">
      <g>
       <use xlink:href="#m4ed00635a2" x="820.952813" y="329.44" style="stroke: #000000; stroke-width: 0.8"/>
      </g>
     </g>
     <g id="text_50">
      <!-- 0.00 -->
      <g transform="translate(808.706719 344.798281) scale(0.11 -0.11)">
       <use xlink:href="#DejaVuSans-30"/>
       <use xlink:href="#DejaVuSans-2e" transform="translate(63.623047 0)"/>
       <use xlink:href="#DejaVuSans-30" transform="translate(95.410156 0)"/>
       <use xlink:href="#DejaVuSans-30" transform="translate(159.033203 0)"/>
      </g>
     </g>
    </g>
    <g id="xtick_17">
     <g id="line2d_47">
      <g>
       <use xlink:href="#m4ed00635a2" x="863.296591" y="329.44" style="stroke: #000000; stroke-width: 0.8"/>
      </g>
     </g>
     <g id="text_51">
      <!-- 0.01 -->
      <g transform="translate(851.050498 344.798281) scale(0.11 -0.11)">
       <use xlink:href="#DejaVuSans-30"/>
       <use xlink:href="#DejaVuSans-2e" transform="translate(63.623047 0)"/>
       <use xlink:href="#DejaVuSans-30" transform="translate(95.410156 0)"/>
       <use xlink:href="#DejaVuSans-31" transform="translate(159.033203 0)"/>
      </g>
     </g>
    </g>
    <g id="xtick_18">
     <g id="line2d_48">
      <g>
       <use xlink:href="#m4ed00635a2" x="905.64037" y="329.44" style="stroke: #000000; stroke-width: 0.8"/>
      </g>
     </g>
     <g id="text_52">
      <!-- 0.02 -->
      <g transform="translate(893.394276 344.798281) scale(0.11 -0.11)">
       <use xlink:href="#DejaVuSans-30"/>
       <use xlink:href="#DejaVuSans-2e" transform="translate(63.623047 0)"/>
       <use xlink:href="#DejaVuSans-30" transform="translate(95.410156 0)"/>
       <use xlink:href="#DejaVuSans-32" transform="translate(159.033203 0)"/>
      </g>
     </g>
    </g>
    <g id="xtick_19">
     <g id="line2d_49">
      <g>
       <use xlink:href="#m4ed00635a2" x="947.984149" y="329.44" style="stroke: #000000; stroke-width: 0.8"/>
      </g>
     </g>
     <g id="text_53">
      <!-- 0.03 -->
      <g transform="translate(935.738055 344.798281) scale(0.11 -0.11)">
       <use xlink:href="#DejaVuSans-30"/>
       <use xlink:href="#DejaVuSans-2e" transform="translate(63.623047 0)"/>
       <use xlink:href="#DejaVuSans-30" transform="translate(95.410156 0)"/>
       <use xlink:href="#DejaVuSans-33" transform="translate(159.033203 0)"/>
      </g>
     </g>
    </g>
    <g id="xtick_20">
     <g id="line2d_50">
      <g>
       <use xlink:href="#m4ed00635a2" x="990.327928" y="329.44" style="stroke: #000000; stroke-width: 0.8"/>
      </g>
     </g>
     <g id="text_54">
      <!-- 0.04 -->
      <g transform="translate(978.081834 344.798281) scale(0.11 -0.11)">
       <use xlink:href="#DejaVuSans-30"/>
       <use xlink:href="#DejaVuSans-2e" transform="translate(63.623047 0)"/>
       <use xlink:href="#DejaVuSans-30" transform="translate(95.410156 0)"/>
       <use xlink:href="#DejaVuSans-34" transform="translate(159.033203 0)"/>
      </g>
     </g>
    </g>
    <g id="xtick_21">
     <g id="line2d_51">
      <g>
       <use xlink:href="#m4ed00635a2" x="1032.671707" y="329.44" style="stroke: #000000; stroke-width: 0.8"/>
      </g>
     </g>
     <g id="text_55">
      <!-- 0.05 -->
      <g transform="translate(1020.425613 344.798281) scale(0.11 -0.11)">
       <use xlink:href="#DejaVuSans-30"/>
       <use xlink:href="#DejaVuSans-2e" transform="translate(63.623047 0)"/>
       <use xlink:href="#DejaVuSans-30" transform="translate(95.410156 0)"/>
       <use xlink:href="#DejaVuSans-35" transform="translate(159.033203 0)"/>
      </g>
     </g>
    </g>
    <g id="xtick_22">
     <g id="line2d_52">
      <g>
       <use xlink:href="#m4ed00635a2" x="1075.015485" y="329.44" style="stroke: #000000; stroke-width: 0.8"/>
      </g>
     </g>
     <g id="text_56">
      <!-- 0.06 -->
      <g transform="translate(1062.769392 344.798281) scale(0.11 -0.11)">
       <use xlink:href="#DejaVuSans-30"/>
       <use xlink:href="#DejaVuSans-2e" transform="translate(63.623047 0)"/>
       <use xlink:href="#DejaVuSans-30" transform="translate(95.410156 0)"/>
       <use xlink:href="#DejaVuSans-36" transform="translate(159.033203 0)"/>
      </g>
     </g>
    </g>
    <g id="xtick_23">
     <g id="line2d_53">
      <g>
       <use xlink:href="#m4ed00635a2" x="1117.359264" y="329.44" style="stroke: #000000; stroke-width: 0.8"/>
      </g>
     </g>
     <g id="text_57">
      <!-- 0.07 -->
      <g transform="translate(1105.11317 344.798281) scale(0.11 -0.11)">
       <use xlink:href="#DejaVuSans-30"/>
       <use xlink:href="#DejaVuSans-2e" transform="translate(63.623047 0)"/>
       <use xlink:href="#DejaVuSans-30" transform="translate(95.410156 0)"/>
       <use xlink:href="#DejaVuSans-37" transform="translate(159.033203 0)"/>
      </g>
     </g>
    </g>
    <g id="text_58">
     <!-- Mean TF-IDF Weight -->
     <g transform="translate(923.042656 359.444219) scale(0.11 -0.11)">
      <use xlink:href="#DejaVuSans-4d"/>
      <use xlink:href="#DejaVuSans-65" transform="translate(86.279297 0)"/>
      <use xlink:href="#DejaVuSans-61" transform="translate(147.802734 0)"/>
      <use xlink:href="#DejaVuSans-6e" transform="translate(209.082031 0)"/>
      <use xlink:href="#DejaVuSans-20" transform="translate(272.460938 0)"/>
      <use xlink:href="#DejaVuSans-54" transform="translate(304.248047 0)"/>
      <use xlink:href="#DejaVuSans-46" transform="translate(365.332031 0)"/>
      <use xlink:href="#DejaVuSans-2d" transform="translate(422.851562 0)"/>
      <use xlink:href="#DejaVuSans-49" transform="translate(458.935547 0)"/>
      <use xlink:href="#DejaVuSans-44" transform="translate(488.427734 0)"/>
      <use xlink:href="#DejaVuSans-46" transform="translate(565.429688 0)"/>
      <use xlink:href="#DejaVuSans-20" transform="translate(622.949219 0)"/>
      <use xlink:href="#DejaVuSans-57" transform="translate(654.736328 0)"/>
      <use xlink:href="#DejaVuSans-65" transform="translate(747.738281 0)"/>
      <use xlink:href="#DejaVuSans-69" transform="translate(809.261719 0)"/>
      <use xlink:href="#DejaVuSans-67" transform="translate(837.044922 0)"/>
      <use xlink:href="#DejaVuSans-68" transform="translate(900.521484 0)"/>
      <use xlink:href="#DejaVuSans-74" transform="translate(963.900391 0)"/>
     </g>
    </g>
   </g>
   <g id="matplotlib.axis_6">
    <g id="ytick_31">
     <g id="line2d_54">
      <g>
       <use xlink:href="#md13dbc06e9" x="820.952813" y="100.026221" style="stroke: #000000; stroke-width: 0.8"/>
      </g>
     </g>
     <g id="text_59">
      <!-- name -->
      <g transform="translate(788.429375 103.445518) scale(0.09 -0.09)">
       <use xlink:href="#DejaVuSans-6e"/>
       <use xlink:href="#DejaVuSans-61" transform="translate(63.378906 0)"/>
       <use xlink:href="#DejaVuSans-6d" transform="translate(124.658203 0)"/>
       <use xlink:href="#DejaVuSans-65" transform="translate(222.070312 0)"/>
      </g>
     </g>
    </g>
    <g id="ytick_32">
     <g id="line2d_55">
      <g>
       <use xlink:href="#md13dbc06e9" x="820.952813" y="115.179047" style="stroke: #000000; stroke-width: 0.8"/>
      </g>
     </g>
     <g id="text_60">
      <!-- your -->
      <g transform="translate(793.715469 118.598344) scale(0.09 -0.09)">
       <use xlink:href="#DejaVuSans-79"/>
       <use xlink:href="#DejaVuSans-6f" transform="translate(59.179688 0)"/>
       <use xlink:href="#DejaVuSans-75" transform="translate(120.361328 0)"/>
       <use xlink:href="#DejaVuSans-72" transform="translate(183.740234 0)"/>
      </g>
     </g>
    </g>
    <g id="ytick_33">
     <g id="line2d_56">
      <g>
       <use xlink:href="#md13dbc06e9" x="820.952813" y="130.331872" style="stroke: #000000; stroke-width: 0.8"/>
      </g>
     </g>
     <g id="text_61">
      <!-- you -->
      <g transform="translate(797.415313 133.751169) scale(0.09 -0.09)">
       <use xlink:href="#DejaVuSans-79"/>
       <use xlink:href="#DejaVuSans-6f" transform="translate(59.179688 0)"/>
       <use xlink:href="#DejaVuSans-75" transform="translate(120.361328 0)"/>
      </g>
     </g>
    </g>
    <g id="ytick_34">
     <g id="line2d_57">
      <g>
       <use xlink:href="#md13dbc06e9" x="820.952813" y="145.484698" style="stroke: #000000; stroke-width: 0.8"/>
      </g>
     </g>
     <g id="text_62">
      <!-- to -->
      <g transform="translate(804.917656 148.903995) scale(0.09 -0.09)">
       <use xlink:href="#DejaVuSans-74"/>
       <use xlink:href="#DejaVuSans-6f" transform="translate(39.208984 0)"/>
      </g>
     </g>
    </g>
    <g id="ytick_35">
     <g id="line2d_58">
      <g>
       <use xlink:href="#md13dbc06e9" x="820.952813" y="160.637523" style="stroke: #000000; stroke-width: 0.8"/>
      </g>
     </g>
     <g id="text_63">
      <!-- sent -->
      <g transform="translate(794.494531 164.05682) scale(0.09 -0.09)">
       <use xlink:href="#DejaVuSans-73"/>
       <use xlink:href="#DejaVuSans-65" transform="translate(52.099609 0)"/>
       <use xlink:href="#DejaVuSans-6e" transform="translate(113.623047 0)"/>
       <use xlink:href="#DejaVuSans-74" transform="translate(177.001953 0)"/>
      </g>
     </g>
    </g>
    <g id="ytick_36">
     <g id="line2d_59">
      <g>
       <use xlink:href="#md13dbc06e9" x="820.952813" y="175.790349" style="stroke: #000000; stroke-width: 0.8"/>
      </g>
     </g>
     <g id="text_64">
      <!-- the -->
      <g transform="translate(799.182969 179.209646) scale(0.09 -0.09)">
       <use xlink:href="#DejaVuSans-74"/>
       <use xlink:href="#DejaVuSans-68" transform="translate(39.208984 0)"/>
       <use xlink:href="#DejaVuSans-65" transform="translate(102.587891 0)"/>
      </g>
     </g>
    </g>
    <g id="ytick_37">
     <g id="line2d_60">
      <g>
       <use xlink:href="#md13dbc06e9" x="820.952813" y="190.943174" style="stroke: #000000; stroke-width: 0.8"/>
      </g>
     </g>
     <g id="text_65">
      <!-- on -->
      <g transform="translate(802.742188 194.362471) scale(0.09 -0.09)">
       <use xlink:href="#DejaVuSans-6f"/>
       <use xlink:href="#DejaVuSans-6e" transform="translate(61.181641 0)"/>
      </g>
     </g>
    </g>
    <g id="ytick_38">
     <g id="line2d_61">
      <g>
       <use xlink:href="#md13dbc06e9" x="820.952813" y="206.096" style="stroke: #000000; stroke-width: 0.8"/>
      </g>
     </g>
     <g id="text_66">
      <!-- was -->
      <g transform="translate(796.38875 209.515297) scale(0.09 -0.09)">
       <defs>
        <path id="DejaVuSans-77" d="M 269 3500 
L 844 3500 
L 1563 769 
L 2278 3500 
L 2956 3500 
L 3675 769 
L 4391 3500 
L 4966 3500 
L 4050 0 
L 3372 0 
L 2619 2869 
L 1863 0 
L 1184 0 
L 269 3500 
z
" transform="scale(0.015625)"/>
       </defs>
       <use xlink:href="#DejaVuSans-77"/>
       <use xlink:href="#DejaVuSans-61" transform="translate(81.787109 0)"/>
       <use xlink:href="#DejaVuSans-73" transform="translate(143.066406 0)"/>
      </g>
     </g>
    </g>
    <g id="ytick_39">
     <g id="line2d_62">
      <g>
       <use xlink:href="#md13dbc06e9" x="820.952813" y="221.248826" style="stroke: #000000; stroke-width: 0.8"/>
      </g>
     </g>
     <g id="text_67">
      <!-- for -->
      <g transform="translate(801.577813 224.668122) scale(0.09 -0.09)">
       <use xlink:href="#DejaVuSans-66"/>
       <use xlink:href="#DejaVuSans-6f" transform="translate(35.205078 0)"/>
       <use xlink:href="#DejaVuSans-72" transform="translate(96.386719 0)"/>
      </g>
     </g>
    </g>
    <g id="ytick_40">
     <g id="line2d_63">
      <g>
       <use xlink:href="#md13dbc06e9" x="820.952813" y="236.401651" style="stroke: #000000; stroke-width: 0.8"/>
      </g>
     </g>
     <g id="text_68">
      <!-- today -->
      <g transform="translate(788.361875 239.820948) scale(0.09 -0.09)">
       <use xlink:href="#DejaVuSans-74"/>
       <use xlink:href="#DejaVuSans-6f" transform="translate(39.208984 0)"/>
       <use xlink:href="#DejaVuSans-64" transform="translate(100.390625 0)"/>
       <use xlink:href="#DejaVuSans-61" transform="translate(163.867188 0)"/>
       <use xlink:href="#DejaVuSans-79" transform="translate(225.146484 0)"/>
      </g>
     </g>
    </g>
    <g id="ytick_41">
     <g id="line2d_64">
      <g>
       <use xlink:href="#md13dbc06e9" x="820.952813" y="251.554477" style="stroke: #000000; stroke-width: 0.8"/>
      </g>
     </g>
     <g id="text_69">
      <!-- in -->
      <g transform="translate(805.74875 254.973774) scale(0.09 -0.09)">
       <use xlink:href="#DejaVuSans-69"/>
       <use xlink:href="#DejaVuSans-6e" transform="translate(27.783203 0)"/>
      </g>
     </g>
    </g>
    <g id="ytick_42">
     <g id="line2d_65">
      <g>
       <use xlink:href="#md13dbc06e9" x="820.952813" y="266.707302" style="stroke: #000000; stroke-width: 0.8"/>
      </g>
     </g>
     <g id="text_70">
      <!-- shared -->
      <g transform="translate(783.296563 270.126599) scale(0.09 -0.09)">
       <use xlink:href="#DejaVuSans-73"/>
       <use xlink:href="#DejaVuSans-68" transform="translate(52.099609 0)"/>
       <use xlink:href="#DejaVuSans-61" transform="translate(115.478516 0)"/>
       <use xlink:href="#DejaVuSans-72" transform="translate(176.757812 0)"/>
       <use xlink:href="#DejaVuSans-65" transform="translate(215.621094 0)"/>
       <use xlink:href="#DejaVuSans-64" transform="translate(277.144531 0)"/>
      </g>
     </g>
    </g>
    <g id="ytick_43">
     <g id="line2d_66">
      <g>
       <use xlink:href="#md13dbc06e9" x="820.952813" y="281.860128" style="stroke: #000000; stroke-width: 0.8"/>
      </g>
     </g>
     <g id="text_71">
      <!-- amount -->
      <g transform="translate(779.228281 285.279425) scale(0.09 -0.09)">
       <use xlink:href="#DejaVuSans-61"/>
       <use xlink:href="#DejaVuSans-6d" transform="translate(61.279297 0)"/>
       <use xlink:href="#DejaVuSans-6f" transform="translate(158.691406 0)"/>
       <use xlink:href="#DejaVuSans-75" transform="translate(219.873047 0)"/>
       <use xlink:href="#DejaVuSans-6e" transform="translate(283.251953 0)"/>
       <use xlink:href="#DejaVuSans-74" transform="translate(346.630859 0)"/>
      </g>
     </g>
    </g>
    <g id="ytick_44">
     <g id="line2d_67">
      <g>
       <use xlink:href="#md13dbc06e9" x="820.952813" y="297.012953" style="stroke: #000000; stroke-width: 0.8"/>
      </g>
     </g>
     <g id="text_72">
      <!-- and -->
      <g transform="translate(797.020156 300.43225) scale(0.09 -0.09)">
       <use xlink:href="#DejaVuSans-61"/>
       <use xlink:href="#DejaVuSans-6e" transform="translate(61.279297 0)"/>
       <use xlink:href="#DejaVuSans-64" transform="translate(124.658203 0)"/>
      </g>
     </g>
    </g>
    <g id="ytick_45">
     <g id="line2d_68">
      <g>
       <use xlink:href="#md13dbc06e9" x="820.952813" y="312.165779" style="stroke: #000000; stroke-width: 0.8"/>
      </g>
     </g>
     <g id="text_73">
      <!-- sent you -->
      <g transform="translate(775.096719 315.585076) scale(0.09 -0.09)">
       <use xlink:href="#DejaVuSans-73"/>
       <use xlink:href="#DejaVuSans-65" transform="translate(52.099609 0)"/>
       <use xlink:href="#DejaVuSans-6e" transform="translate(113.623047 0)"/>
       <use xlink:href="#DejaVuSans-74" transform="translate(177.001953 0)"/>
       <use xlink:href="#DejaVuSans-20" transform="translate(216.210938 0)"/>
       <use xlink:href="#DejaVuSans-79" transform="translate(247.998047 0)"/>
       <use xlink:href="#DejaVuSans-6f" transform="translate(307.177734 0)"/>
       <use xlink:href="#DejaVuSans-75" transform="translate(368.359375 0)"/>
      </g>
     </g>
    </g>
   </g>
   <g id="patch_54">
    <path d="M 820.952813 329.44 
L 820.952813 82.752 
" style="fill: none; stroke: #000000; stroke-width: 0.8; stroke-linejoin: miter; stroke-linecap: square"/>
   </g>
   <g id="patch_55">
    <path d="M 820.952813 329.44 
L 1135.472813 329.44 
" style="fill: none; stroke: #000000; stroke-width: 0.8; stroke-linejoin: miter; stroke-linecap: square"/>
   </g>
   <g id="text_74">
    <!-- Low Urgency -->
    <g style="fill: #2ecc71" transform="translate(931.074609 76.752) scale(0.13 -0.13)">
     <defs>
      <path id="DejaVuSans-Bold-4c" d="M 588 4666 
L 1791 4666 
L 1791 909 
L 3903 909 
L 3903 0 
L 588 0 
L 588 4666 
z
" transform="scale(0.015625)"/>
      <path id="DejaVuSans-Bold-6f" d="M 2203 2784 
Q 1831 2784 1636 2517 
Q 1441 2250 1441 1747 
Q 1441 1244 1636 976 
Q 1831 709 2203 709 
Q 2569 709 2762 976 
Q 2956 1244 2956 1747 
Q 2956 2250 2762 2517 
Q 2569 2784 2203 2784 
z
M 2203 3584 
Q 3106 3584 3614 3096 
Q 4122 2609 4122 1747 
Q 4122 884 3614 396 
Q 3106 -91 2203 -91 
Q 1297 -91 786 396 
Q 275 884 275 1747 
Q 275 2609 786 3096 
Q 1297 3584 2203 3584 
z
" transform="scale(0.015625)"/>
      <path id="DejaVuSans-Bold-77" d="M 225 3500 
L 1313 3500 
L 1900 1088 
L 2491 3500 
L 3425 3500 
L 4013 1113 
L 4603 3500 
L 5691 3500 
L 4769 0 
L 3547 0 
L 2956 2406 
L 2369 0 
L 1147 0 
L 225 3500 
z
" transform="scale(0.015625)"/>
     </defs>
     <use xlink:href="#DejaVuSans-Bold-4c"/>
     <use xlink:href="#DejaVuSans-Bold-6f" transform="translate(63.720703 0)"/>
     <use xlink:href="#DejaVuSans-Bold-77" transform="translate(132.421875 0)"/>
     <use xlink:href="#DejaVuSans-Bold-20" transform="translate(224.804688 0)"/>
     <use xlink:href="#DejaVuSans-Bold-55" transform="translate(259.619141 0)"/>
     <use xlink:href="#DejaVuSans-Bold-72" transform="translate(340.820312 0)"/>
     <use xlink:href="#DejaVuSans-Bold-67" transform="translate(390.136719 0)"/>
     <use xlink:href="#DejaVuSans-Bold-65" transform="translate(461.71875 0)"/>
     <use xlink:href="#DejaVuSans-Bold-6e" transform="translate(529.541016 0)"/>
     <use xlink:href="#DejaVuSans-Bold-63" transform="translate(600.732422 0)"/>
     <use xlink:href="#DejaVuSans-Bold-79" transform="translate(660.009766 0)"/>
    </g>
   </g>
  </g>
  <g id="text_75">
   <!-- Top 15 TF-IDF Features per Urgency Class -->
   <g transform="translate(406.82 17.837812) scale(0.14 -0.14)">
    <defs>
     <path id="DejaVuSans-Bold-54" d="M 31 4666 
L 4331 4666 
L 4331 3756 
L 2784 3756 
L 2784 0 
L 1581 0 
L 1581 3756 
L 31 3756 
L 31 4666 
z
" transform="scale(0.015625)"/>
     <path id="DejaVuSans-Bold-70" d="M 1656 506 
L 1656 -1331 
L 538 -1331 
L 538 3500 
L 1656 3500 
L 1656 2988 
Q 1888 3294 2169 3439 
Q 2450 3584 2816 3584 
Q 3463 3584 3878 3070 
Q 4294 2556 4294 1747 
Q 4294 938 3878 423 
Q 3463 -91 2816 -91 
Q 2450 -91 2169 54 
Q 1888 200 1656 506 
z
M 2400 2772 
Q 2041 2772 1848 2508 
Q 1656 2244 1656 1747 
Q 1656 1250 1848 986 
Q 2041 722 2400 722 
Q 2759 722 2948 984 
Q 3138 1247 3138 1747 
Q 3138 2247 2948 2509 
Q 2759 2772 2400 2772 
z
" transform="scale(0.015625)"/>
     <path id="DejaVuSans-Bold-31" d="M 750 831 
L 1813 831 
L 1813 3847 
L 722 3622 
L 722 4441 
L 1806 4666 
L 2950 4666 
L 2950 831 
L 4013 831 
L 4013 0 
L 750 0 
L 750 831 
z
" transform="scale(0.015625)"/>
     <path id="DejaVuSans-Bold-35" d="M 678 4666 
L 3669 4666 
L 3669 3781 
L 1638 3781 
L 1638 3059 
Q 1775 3097 1914 3117 
Q 2053 3138 2203 3138 
Q 3056 3138 3531 2711 
Q 4006 2284 4006 1522 
Q 4006 766 3489 337 
Q 2972 -91 2053 -91 
Q 1656 -91 1267 -14 
Q 878 63 494 219 
L 494 1166 
Q 875 947 1217 837 
Q 1559 728 1863 728 
Q 2300 728 2551 942 
Q 2803 1156 2803 1522 
Q 2803 1891 2551 2103 
Q 2300 2316 1863 2316 
Q 1603 2316 1309 2248 
Q 1016 2181 678 2041 
L 678 4666 
z
" transform="scale(0.015625)"/>
     <path id="DejaVuSans-Bold-46" d="M 588 4666 
L 3834 4666 
L 3834 3756 
L 1791 3756 
L 1791 2888 
L 3713 2888 
L 3713 1978 
L 1791 1978 
L 1791 0 
L 588 0 
L 588 4666 
z
" transform="scale(0.015625)"/>
     <path id="DejaVuSans-Bold-2d" d="M 347 2297 
L 2309 2297 
L 2309 1388 
L 347 1388 
L 347 2297 
z
" transform="scale(0.015625)"/>
     <path id="DejaVuSans-Bold-49" d="M 588 4666 
L 1791 4666 
L 1791 0 
L 588 0 
L 588 4666 
z
" transform="scale(0.015625)"/>
     <path id="DejaVuSans-Bold-44" d="M 1791 3756 
L 1791 909 
L 2222 909 
Q 2959 909 3348 1275 
Q 3738 1641 3738 2338 
Q 3738 3031 3350 3393 
Q 2963 3756 2222 3756 
L 1791 3756 
z
M 588 4666 
L 1856 4666 
Q 2919 4666 3439 4514 
Q 3959 4363 4331 4000 
Q 4659 3684 4818 3271 
Q 4978 2859 4978 2338 
Q 4978 1809 4818 1395 
Q 4659 981 4331 666 
Q 3956 303 3431 151 
Q 2906 0 1856 0 
L 588 0 
L 588 4666 
z
" transform="scale(0.015625)"/>
     <path id="DejaVuSans-Bold-61" d="M 2106 1575 
Q 1756 1575 1579 1456 
Q 1403 1338 1403 1106 
Q 1403 894 1545 773 
Q 1688 653 1941 653 
Q 2256 653 2472 879 
Q 2688 1106 2688 1447 
L 2688 1575 
L 2106 1575 
z
M 3816 1997 
L 3816 0 
L 2688 0 
L 2688 519 
Q 2463 200 2181 54 
Q 1900 -91 1497 -91 
Q 953 -91 614 226 
Q 275 544 275 1050 
Q 275 1666 698 1953 
Q 1122 2241 2028 2241 
L 2688 2241 
L 2688 2328 
Q 2688 2594 2478 2717 
Q 2269 2841 1825 2841 
Q 1466 2841 1156 2769 
Q 847 2697 581 2553 
L 581 3406 
Q 941 3494 1303 3539 
Q 1666 3584 2028 3584 
Q 2975 3584 3395 3211 
Q 3816 2838 3816 1997 
z
" transform="scale(0.015625)"/>
     <path id="DejaVuSans-Bold-74" d="M 1759 4494 
L 1759 3500 
L 2913 3500 
L 2913 2700 
L 1759 2700 
L 1759 1216 
Q 1759 972 1856 886 
Q 1953 800 2241 800 
L 2816 800 
L 2816 0 
L 1856 0 
Q 1194 0 917 276 
Q 641 553 641 1216 
L 641 2700 
L 84 2700 
L 84 3500 
L 641 3500 
L 641 4494 
L 1759 4494 
z
" transform="scale(0.015625)"/>
     <path id="DejaVuSans-Bold-73" d="M 3272 3391 
L 3272 2541 
Q 2913 2691 2578 2766 
Q 2244 2841 1947 2841 
Q 1628 2841 1473 2761 
Q 1319 2681 1319 2516 
Q 1319 2381 1436 2309 
Q 1553 2238 1856 2203 
L 2053 2175 
Q 2913 2066 3209 1816 
Q 3506 1566 3506 1031 
Q 3506 472 3093 190 
Q 2681 -91 1863 -91 
Q 1516 -91 1145 -36 
Q 775 19 384 128 
L 384 978 
Q 719 816 1070 734 
Q 1422 653 1784 653 
Q 2113 653 2278 743 
Q 2444 834 2444 1013 
Q 2444 1163 2330 1236 
Q 2216 1309 1875 1350 
L 1678 1375 
Q 931 1469 631 1722 
Q 331 1975 331 2491 
Q 331 3047 712 3315 
Q 1094 3584 1881 3584 
Q 2191 3584 2531 3537 
Q 2872 3491 3272 3391 
z
" transform="scale(0.015625)"/>
     <path id="DejaVuSans-Bold-43" d="M 4288 256 
Q 3956 84 3597 -3 
Q 3238 -91 2847 -91 
Q 1681 -91 1000 561 
Q 319 1213 319 2328 
Q 319 3447 1000 4098 
Q 1681 4750 2847 4750 
Q 3238 4750 3597 4662 
Q 3956 4575 4288 4403 
L 4288 3438 
Q 3953 3666 3628 3772 
Q 3303 3878 2944 3878 
Q 2300 3878 1931 3465 
Q 1563 3053 1563 2328 
Q 1563 1606 1931 1193 
Q 2300 781 2944 781 
Q 3303 781 3628 887 
Q 3953 994 4288 1222 
L 4288 256 
z
" transform="scale(0.015625)"/>
     <path id="DejaVuSans-Bold-6c" d="M 538 4863 
L 1656 4863 
L 1656 0 
L 538 0 
L 538 4863 
z
" transform="scale(0.015625)"/>
    </defs>
    <use xlink:href="#DejaVuSans-Bold-54"/>
    <use xlink:href="#DejaVuSans-Bold-6f" transform="translate(54.962891 0)"/>
    <use xlink:href="#DejaVuSans-Bold-70" transform="translate(123.664062 0)"/>
    <use xlink:href="#DejaVuSans-Bold-20" transform="translate(195.246094 0)"/>
    <use xlink:href="#DejaVuSans-Bold-31" transform="translate(230.060547 0)"/>
    <use xlink:href="#DejaVuSans-Bold-35" transform="translate(299.640625 0)"/>
    <use xlink:href="#DejaVuSans-Bold-20" transform="translate(369.220703 0)"/>
    <use xlink:href="#DejaVuSans-Bold-54" transform="translate(404.035156 0)"/>
    <use xlink:href="#DejaVuSans-Bold-46" transform="translate(472.248047 0)"/>
    <use xlink:href="#DejaVuSans-Bold-2d" transform="translate(537.433594 0)"/>
    <use xlink:href="#DejaVuSans-Bold-49" transform="translate(578.9375 0)"/>
    <use xlink:href="#DejaVuSans-Bold-44" transform="translate(616.144531 0)"/>
    <use xlink:href="#DejaVuSans-Bold-46" transform="translate(699.152344 0)"/>
    <use xlink:href="#DejaVuSans-Bold-20" transform="translate(767.462891 0)"/>
    <use xlink:href="#DejaVuSans-Bold-46" transform="translate(802.277344 0)"/>
    <use xlink:href="#DejaVuSans-Bold-65" transform="translate(866.587891 0)"/>
    <use xlink:href="#DejaVuSans-Bold-61" transform="translate(934.410156 0)"/>
    <use xlink:href="#DejaVuSans-Bold-74" transform="translate(1001.890625 0)"/>
    <use xlink:href="#DejaVuSans-Bold-75" transform="translate(1049.693359 0)"/>
    <use xlink:href="#DejaVuSans-Bold-72" transform="translate(1120.884766 0)"/>
    <use xlink:href="#DejaVuSans-Bold-65" transform="translate(1170.201172 0)"/>
    <use xlink:href="#DejaVuSans-Bold-73" transform="translate(1238.023438 0)"/>
    <use xlink:href="#DejaVuSans-Bold-20" transform="translate(1297.544922 0)"/>
    <use xlink:href="#DejaVuSans-Bold-70" transform="translate(1332.359375 0)"/>
    <use xlink:href="#DejaVuSans-Bold-65" transform="translate(1403.941406 0)"/>
    <use xlink:href="#DejaVuSans-Bold-72" transform="translate(1471.763672 0)"/>
    <use xlink:href="#DejaVuSans-Bold-20" transform="translate(1521.080078 0)"/>
    <use xlink:href="#DejaVuSans-Bold-55" transform="translate(1555.894531 0)"/>
    <use xlink:href="#DejaVuSans-Bold-72" transform="translate(1637.095703 0)"/>
    <use xlink:href="#DejaVuSans-Bold-67" transform="translate(1686.412109 0)"/>
    <use xlink:href="#DejaVuSans-Bold-65" transform="translate(1757.994141 0)"/>
    <use xlink:href="#DejaVuSans-Bold-6e" transform="translate(1825.816406 0)"/>
    <use xlink:href="#DejaVuSans-Bold-63" transform="translate(1897.007812 0)"/>
    <use xlink:href="#DejaVuSans-Bold-79" transform="translate(1956.285156 0)"/>
    <use xlink:href="#DejaVuSans-Bold-20" transform="translate(2021.470703 0)"/>
    <use xlink:href="#DejaVuSans-Bold-43" transform="translate(2056.285156 0)"/>
    <use xlink:href="#DejaVuSans-Bold-6c" transform="translate(2129.673828 0)"/>
    <use xlink:href="#DejaVuSans-Bold-61" transform="translate(2163.951172 0)"/>
    <use xlink:href="#DejaVuSans-Bold-73" transform="translate(2231.431641 0)"/>
    <use xlink:href="#DejaVuSans-Bold-73" transform="translate(2290.953125 0)"/>
   </g>
   <!-- (mean weight across training documents) -->
   <g transform="translate(406.249063 33.624125) scale(0.14 -0.14)">
    <defs>
     <path id="DejaVuSans-Bold-28" d="M 2413 -844 
L 1484 -844 
Q 1006 -72 778 623 
Q 550 1319 550 2003 
Q 550 2688 779 3389 
Q 1009 4091 1484 4856 
L 2413 4856 
Q 2013 4116 1813 3408 
Q 1613 2700 1613 2009 
Q 1613 1319 1811 609 
Q 2009 -100 2413 -844 
z
" transform="scale(0.015625)"/>
     <path id="DejaVuSans-Bold-29" d="M 513 -844 
Q 913 -100 1113 609 
Q 1313 1319 1313 2009 
Q 1313 2700 1113 3408 
Q 913 4116 513 4856 
L 1441 4856 
Q 1916 4091 2145 3389 
Q 2375 2688 2375 2003 
Q 2375 1319 2147 623 
Q 1919 -72 1441 -844 
L 513 -844 
z
" transform="scale(0.015625)"/>
    </defs>
    <use xlink:href="#DejaVuSans-Bold-28"/>
    <use xlink:href="#DejaVuSans-Bold-6d" transform="translate(45.703125 0)"/>
    <use xlink:href="#DejaVuSans-Bold-65" transform="translate(149.902344 0)"/>
    <use xlink:href="#DejaVuSans-Bold-61" transform="translate(217.724609 0)"/>
    <use xlink:href="#DejaVuSans-Bold-6e" transform="translate(285.205078 0)"/>
    <use xlink:href="#DejaVuSans-Bold-20" transform="translate(356.396484 0)"/>
    <use xlink:href="#DejaVuSans-Bold-77" transform="translate(391.210938 0)"/>
    <use xlink:href="#DejaVuSans-Bold-65" transform="translate(483.59375 0)"/>
    <use xlink:href="#DejaVuSans-Bold-69" transform="translate(551.416016 0)"/>
    <use xlink:href="#DejaVuSans-Bold-67" transform="translate(585.693359 0)"/>
    <use xlink:href="#DejaVuSans-Bold-68" transform="translate(657.275391 0)"/>
    <use xlink:href="#DejaVuSans-Bold-74" transform="translate(728.466797 0)"/>
    <use xlink:href="#DejaVuSans-Bold-20" transform="translate(776.269531 0)"/>
    <use xlink:href="#DejaVuSans-Bold-61" transform="translate(811.083984 0)"/>
    <use xlink:href="#DejaVuSans-Bold-63" transform="translate(878.564453 0)"/>
    <use xlink:href="#DejaVuSans-Bold-72" transform="translate(937.841797 0)"/>
    <use xlink:href="#DejaVuSans-Bold-6f" transform="translate(987.158203 0)"/>
    <use xlink:href="#DejaVuSans-Bold-73" transform="translate(1055.859375 0)"/>
    <use xlink:href="#DejaVuSans-Bold-73" transform="translate(1115.380859 0)"/>
    <use xlink:href="#DejaVuSans-Bold-20" transform="translate(1174.902344 0)"/>
    <use xlink:href="#DejaVuSans-Bold-74" transform="translate(1209.716797 0)"/>
    <use xlink:href="#DejaVuSans-Bold-72" transform="translate(1257.519531 0)"/>
    <use xlink:href="#DejaVuSans-Bold-61" transform="translate(1306.835938 0)"/>
    <use xlink:href="#DejaVuSans-Bold-69" transform="translate(1374.316406 0)"/>
    <use xlink:href="#DejaVuSans-Bold-6e" transform="translate(1408.59375 0)"/>
    <use xlink:href="#DejaVuSans-Bold-69" transform="translate(1479.785156 0)"/>
    <use xlink:href="#DejaVuSans-Bold-6e" transform="translate(1514.0625 0)"/>
    <use xlink:href="#DejaVuSans-Bold-67" transform="translate(1585.253906 0)"/>
    <use xlink:href="#DejaVuSans-Bold-20" transform="translate(1656.835938 0)"/>
    <use xlink:href="#DejaVuSans-Bold-64" transform="translate(1691.650391 0)"/>
    <use xlink:href="#DejaVuSans-Bold-6f" transform="translate(1763.232422 0)"/>
    <use xlink:href="#DejaVuSans-Bold-63" transform="translate(1831.933594 0)"/>
    <use xlink:href="#DejaVuSans-Bold-75" transform="translate(1891.210938 0)"/>
    <use xlink:href="#DejaVuSans-Bold-6d" transform="translate(1962.402344 0)"/>
    <use xlink:href="#DejaVuSans-Bold-65" transform="translate(2066.601562 0)"/>
    <use xlink:href="#DejaVuSans-Bold-6e" transform="translate(2134.423828 0)"/>
    <use xlink:href="#DejaVuSans-Bold-74" transform="translate(2205.615234 0)"/>
    <use xlink:href="#DejaVuSans-Bold-73" transform="translate(2253.417969 0)"/>
    <use xlink:href="#DejaVuSans-Bold-29" transform="translate(2312.939453 0)"/>
   </g>
  </g>
 </g>
 <defs>
  <clipPath id="pafff8cbe3d">
   <rect x="73.152812" y="82.752" width="314.52" height="246.688"/>
  </clipPath>
  <clipPath id="p6bdac6c034">
   <rect x="447.052813" y="82.752" width="314.52" height="246.688"/>
  </clipPath>
  <clipPath id="p3c93aa44ec">
   <rect x="820.952813" y="82.752" width="314.52" height="246.688"/>
  </clipPath>
 </defs>
</svg>
